<svg xmlns="http://www.w3.org/2000/svg" xmlns:xlink="http://www.w3.org/1999/xlink" viewBox="0 0 1345.02 1629.63"><defs><style>.cls-1{fill:url(#Dull_Brass);}.cls-2{fill:url(#Dull_Brass-2);}.cls-3{fill:url(#Dull_Brass-3);}.cls-4{fill:url(#Dull_Brass-4);}.cls-5{fill:url(#Dull_Brass-5);}.cls-6{fill:url(#Dull_Brass-6);}.cls-7{fill:url(#Dull_Brass-7);}.cls-8{fill:url(#Dull_Brass-8);}.cls-9{fill:url(#Dull_Brass-9);}.cls-10{fill:url(#Dull_Brass-10);}.cls-11{fill:url(#Dull_Brass-11);}.cls-12{fill:url(#Dull_Brass-12);}.cls-13{fill:url(#Dull_Brass-13);}.cls-14{fill:url(#Dull_Brass-14);}.cls-15{fill:url(#Dull_Brass-15);}.cls-16{fill:url(#Dull_Brass-16);}.cls-17{fill:url(#Dull_Brass-17);}.cls-18{fill:url(#Dull_Brass-18);}.cls-19{fill:url(#Dull_Brass-19);}.cls-20{fill:url(#Dull_Brass-20);}.cls-21{fill:url(#Dull_Brass-21);}.cls-22{fill:url(#Dull_Brass-22);}.cls-23{fill:url(#Dull_Brass-23);}.cls-24{fill:url(#Dull_Brass-24);}.cls-25{fill:url(#Dull_Brass-25);}.cls-26{fill:url(#Dull_Brass-26);}.cls-27{fill:url(#Dull_Brass-27);}.cls-28{fill:url(#Dull_Brass-28);}.cls-29{fill:url(#Dull_Brass-29);}.cls-30{fill:url(#Dull_Brass-30);}.cls-31{fill:url(#Dull_Brass-31);}.cls-32{fill:url(#Dull_Brass-32);}.cls-33{fill:url(#Dull_Brass-33);}.cls-34{fill:url(#Dull_Brass-34);}.cls-35{fill:url(#Dull_Brass-35);}.cls-36{fill:url(#Dull_Brass-36);}.cls-37{fill:url(#Dull_Brass-37);}.cls-38{fill:url(#Dull_Brass-38);}.cls-39{fill:url(#Dull_Brass-39);}.cls-40{fill:url(#Dull_Brass-40);}.cls-41{fill:url(#Dull_Brass-41);}.cls-42{fill:url(#Dull_Brass-42);}.cls-43{fill:url(#Dull_Brass-43);}.cls-44{fill:url(#Dull_Brass-44);}.cls-45{fill:url(#Dull_Brass-45);}.cls-46{fill:url(#Dull_Brass-46);}.cls-47{fill:url(#Dull_Brass-47);}.cls-48{fill:url(#Dull_Brass-48);}.cls-49{fill:url(#Dull_Brass-49);}.cls-50{fill:url(#Dull_Brass-50);}.cls-51{fill:url(#Dull_Brass-51);}.cls-52{fill:url(#Dull_Brass-52);}.cls-53{fill:url(#Dull_Brass-53);}.cls-54{fill:url(#Dull_Brass-54);}.cls-55{fill:url(#Dull_Brass-55);}.cls-56{fill:url(#Dull_Brass-56);}.cls-57{fill:url(#Dull_Brass-57);}.cls-58{fill:url(#Dull_Brass-58);}.cls-59{fill:url(#Dull_Brass-59);}.cls-60{fill:url(#Dull_Brass-60);}.cls-61{fill:url(#Dull_Brass-61);}.cls-62{fill:url(#Dull_Brass-62);}.cls-63{fill:url(#Dull_Brass-63);}.cls-64{fill:url(#Dull_Brass-64);}.cls-65{fill:url(#Dull_Brass-65);}.cls-66{fill:url(#Dull_Brass-66);}.cls-67{fill:url(#Dull_Brass-67);}.cls-68{fill:url(#Dull_Brass-68);}.cls-69{fill:url(#Dull_Brass-69);}.cls-70{fill:url(#Dull_Brass-70);}.cls-71{fill:url(#Dull_Brass-71);}.cls-72{fill:url(#Dull_Brass-72);}.cls-73{fill:url(#Dull_Brass-73);}.cls-74{fill:url(#Dull_Brass-74);}.cls-75{fill:url(#Dull_Brass-75);}.cls-76{fill:url(#Dull_Brass-76);}.cls-77{fill:url(#Dull_Brass-77);}.cls-78{fill:url(#Dull_Brass-78);}.cls-79{fill:url(#Dull_Brass-79);}.cls-80{fill:url(#Dull_Brass-80);}.cls-81{fill:url(#Dull_Brass-81);}.cls-82{fill:url(#Dull_Brass-82);}.cls-83{fill:url(#Dull_Brass-83);}.cls-84{fill:url(#Dull_Brass-84);}.cls-85{fill:url(#Dull_Brass-85);}.cls-86{fill:url(#Dull_Brass-86);}.cls-87{fill:url(#Dull_Brass-87);}.cls-88{fill:url(#Dull_Brass-88);}.cls-89{fill:url(#Dull_Brass-89);}.cls-90{fill:url(#Dull_Brass-90);}.cls-91{fill:url(#Dull_Brass-91);}.cls-92{fill:url(#Dull_Brass-92);}.cls-93{fill:url(#Dull_Brass-93);}.cls-94{fill:url(#Dull_Brass-94);}.cls-95{fill:url(#Dull_Brass-95);}.cls-96{fill:url(#Dull_Brass-96);}.cls-97{fill:url(#Dull_Brass-97);}.cls-98{fill:url(#Dull_Brass-98);}.cls-99{fill:url(#Dull_Brass-99);}.cls-100{fill:url(#Dull_Brass-100);}.cls-101{fill:url(#Dull_Brass-101);}.cls-102{fill:url(#Dull_Brass-102);}.cls-103{fill:url(#Dull_Brass-103);}.cls-104{fill:url(#Dull_Brass-104);}.cls-105{fill:url(#Dull_Brass-105);}.cls-106{fill:url(#Dull_Brass-106);}.cls-107{fill:url(#Dull_Brass-107);}.cls-108{fill:url(#Dull_Brass-108);}.cls-109{fill:url(#Dull_Brass-109);}.cls-110{fill:url(#Dull_Brass-110);}.cls-111{fill:url(#Dull_Brass-111);}.cls-112{fill:url(#Dull_Brass-112);}.cls-113{fill:url(#Dull_Brass-113);}.cls-114{fill:url(#Dull_Brass-114);}.cls-115{fill:url(#Dull_Brass-115);}.cls-116{fill:url(#Dull_Brass-116);}.cls-117{fill:url(#Dull_Brass-117);}.cls-118{fill:url(#Dull_Brass-118);}.cls-119{fill:url(#Dull_Brass-119);}.cls-120{fill:url(#Dull_Brass-120);}.cls-121{fill:url(#Dull_Brass-121);}.cls-122{fill:url(#Dull_Brass-122);}.cls-123{fill:url(#Dull_Brass-123);}.cls-124{fill:url(#Dull_Brass-124);}.cls-125{fill:url(#Dull_Brass-125);}.cls-126{fill:url(#Dull_Brass-126);}.cls-127{fill:url(#Dull_Brass-127);}.cls-128{fill:url(#Dull_Brass-128);}.cls-129{fill:url(#Dull_Brass-129);}.cls-130{fill:url(#Dull_Brass-130);}.cls-131{fill:url(#Dull_Brass-131);}.cls-132{fill:url(#Dull_Brass-132);}</style><linearGradient id="Dull_Brass" x1="75.46" y1="34.24" x2="1317.75" y2="1490.96" gradientUnits="userSpaceOnUse"><stop offset="0.01" stop-color="#ebc17d"/><stop offset="0.19" stop-color="#dfb77c"/><stop offset="0.6" stop-color="#c0832a"/><stop offset="0.87" stop-color="#ebbf81"/><stop offset="1" stop-color="#eedbc3"/></linearGradient><linearGradient id="Dull_Brass-2" x1="390.55" y1="-234.47" x2="1632.84" y2="1222.25" xlink:href="#Dull_Brass"/><linearGradient id="Dull_Brass-3" x1="151.04" y1="-30.21" x2="1393.32" y2="1426.51" xlink:href="#Dull_Brass"/><linearGradient id="Dull_Brass-4" x1="-367.83" y1="412.28" x2="874.46" y2="1868.99" xlink:href="#Dull_Brass"/><linearGradient id="Dull_Brass-5" x1="-194.58" y1="264.53" x2="1047.71" y2="1721.25" xlink:href="#Dull_Brass"/><linearGradient id="Dull_Brass-6" x1="224.92" y1="-93.22" x2="1467.21" y2="1363.5" xlink:href="#Dull_Brass"/><linearGradient id="Dull_Brass-7" x1="398.64" y1="-241.36" x2="1640.93" y2="1215.35" xlink:href="#Dull_Brass"/><linearGradient id="Dull_Brass-8" x1="86.34" y1="24.97" x2="1328.62" y2="1481.68" xlink:href="#Dull_Brass"/><linearGradient id="Dull_Brass-9" x1="-337.49" y1="386.41" x2="904.8" y2="1843.12" xlink:href="#Dull_Brass"/><linearGradient id="Dull_Brass-10" x1="-241.18" y1="304.27" x2="1001.11" y2="1760.99" xlink:href="#Dull_Brass"/><linearGradient id="Dull_Brass-11" x1="-311.63" y1="364.35" x2="930.66" y2="1821.07" xlink:href="#Dull_Brass"/><linearGradient id="Dull_Brass-12" x1="-285.88" y1="342.39" x2="956.41" y2="1799.11" xlink:href="#Dull_Brass"/><linearGradient id="Dull_Brass-13" x1="461.62" y1="-295.08" x2="1703.91" y2="1161.64" xlink:href="#Dull_Brass"/><linearGradient id="Dull_Brass-14" x1="358.02" y1="-206.73" x2="1600.31" y2="1249.99" xlink:href="#Dull_Brass"/><linearGradient id="Dull_Brass-15" x1="265.01" y1="-127.41" x2="1507.3" y2="1329.31" xlink:href="#Dull_Brass"/><linearGradient id="Dull_Brass-16" x1="43.1" y1="61.84" x2="1285.39" y2="1518.55" xlink:href="#Dull_Brass"/><linearGradient id="Dull_Brass-17" x1="179.45" y1="-54.44" x2="1421.74" y2="1402.27" xlink:href="#Dull_Brass"/><linearGradient id="Dull_Brass-18" x1="401.43" y1="-243.74" x2="1643.71" y2="1212.98" xlink:href="#Dull_Brass"/><linearGradient id="Dull_Brass-19" x1="451.99" y1="-286.86" x2="1694.28" y2="1169.86" xlink:href="#Dull_Brass"/><linearGradient id="Dull_Brass-20" x1="366.18" y1="-213.68" x2="1608.47" y2="1243.03" xlink:href="#Dull_Brass"/><linearGradient id="Dull_Brass-21" x1="-312.5" y1="365.1" x2="929.79" y2="1821.81" xlink:href="#Dull_Brass"/><linearGradient id="Dull_Brass-22" x1="-252.71" y1="314.11" x2="989.57" y2="1770.83" xlink:href="#Dull_Brass"/><linearGradient id="Dull_Brass-23" x1="-146.81" y1="223.79" x2="1095.48" y2="1680.51" xlink:href="#Dull_Brass"/><linearGradient id="Dull_Brass-24" x1="111.11" y1="3.84" x2="1353.4" y2="1460.56" xlink:href="#Dull_Brass"/><linearGradient id="Dull_Brass-25" x1="13.76" y1="86.86" x2="1256.05" y2="1543.57" xlink:href="#Dull_Brass"/><linearGradient id="Dull_Brass-26" x1="13.59" y1="87.01" x2="1255.88" y2="1543.72" xlink:href="#Dull_Brass"/><linearGradient id="Dull_Brass-27" x1="286.35" y1="-145.61" x2="1528.64" y2="1311.11" xlink:href="#Dull_Brass"/><linearGradient id="Dull_Brass-28" x1="-269.94" y1="328.8" x2="972.35" y2="1785.52" xlink:href="#Dull_Brass"/><linearGradient id="Dull_Brass-29" x1="-258.41" y1="318.97" x2="983.88" y2="1775.69" xlink:href="#Dull_Brass"/><linearGradient id="Dull_Brass-30" x1="303.16" y1="-159.94" x2="1545.45" y2="1296.77" xlink:href="#Dull_Brass"/><linearGradient id="Dull_Brass-31" x1="-358.54" y1="404.36" x2="883.75" y2="1861.07" xlink:href="#Dull_Brass"/><linearGradient id="Dull_Brass-32" x1="480.38" y1="-311.08" x2="1722.67" y2="1145.64" xlink:href="#Dull_Brass"/><linearGradient id="Dull_Brass-33" x1="452.43" y1="-287.24" x2="1694.72" y2="1169.48" xlink:href="#Dull_Brass"/><linearGradient id="Dull_Brass-34" x1="-223.7" y1="289.36" x2="1018.59" y2="1746.08" xlink:href="#Dull_Brass"/><linearGradient id="Dull_Brass-35" x1="-134.1" y1="212.95" x2="1108.19" y2="1669.67" xlink:href="#Dull_Brass"/><linearGradient id="Dull_Brass-36" x1="-186.42" y1="257.57" x2="1055.87" y2="1714.29" xlink:href="#Dull_Brass"/><linearGradient id="Dull_Brass-37" x1="98.22" y1="14.83" x2="1340.51" y2="1471.55" xlink:href="#Dull_Brass"/><linearGradient id="Dull_Brass-38" x1="180.46" y1="-55.31" x2="1422.75" y2="1401.41" xlink:href="#Dull_Brass"/><linearGradient id="Dull_Brass-39" x1="244.3" y1="-109.75" x2="1486.59" y2="1346.97" xlink:href="#Dull_Brass"/><linearGradient id="Dull_Brass-40" x1="146.14" y1="-26.04" x2="1388.43" y2="1430.68" xlink:href="#Dull_Brass"/><linearGradient id="Dull_Brass-41" x1="35.66" y1="68.18" x2="1277.95" y2="1524.9" xlink:href="#Dull_Brass"/><linearGradient id="Dull_Brass-42" x1="233.31" y1="-100.37" x2="1475.6" y2="1356.34" xlink:href="#Dull_Brass"/><linearGradient id="Dull_Brass-43" x1="300.06" y1="-157.3" x2="1542.35" y2="1299.42" xlink:href="#Dull_Brass"/><linearGradient id="Dull_Brass-44" x1="-273.07" y1="331.47" x2="969.22" y2="1788.19" xlink:href="#Dull_Brass"/><linearGradient id="Dull_Brass-45" x1="271.93" y1="-133.31" x2="1514.22" y2="1323.41" xlink:href="#Dull_Brass"/><linearGradient id="Dull_Brass-46" x1="31.05" y1="72.11" x2="1273.34" y2="1528.83" xlink:href="#Dull_Brass"/><linearGradient id="Dull_Brass-47" x1="159.65" y1="-37.56" x2="1401.94" y2="1419.16" xlink:href="#Dull_Brass"/><linearGradient id="Dull_Brass-48" x1="-22.38" y1="117.68" x2="1219.91" y2="1574.4" xlink:href="#Dull_Brass"/><linearGradient id="Dull_Brass-49" x1="154.45" y1="-33.12" x2="1396.74" y2="1423.59" xlink:href="#Dull_Brass"/><linearGradient id="Dull_Brass-50" x1="42.62" y1="62.25" x2="1284.91" y2="1518.97" xlink:href="#Dull_Brass"/><linearGradient id="Dull_Brass-51" x1="183.94" y1="-58.27" x2="1426.23" y2="1398.44" xlink:href="#Dull_Brass"/><linearGradient id="Dull_Brass-52" x1="-272.9" y1="331.32" x2="969.39" y2="1788.04" xlink:href="#Dull_Brass"/><linearGradient id="Dull_Brass-53" x1="109.71" y1="5.03" x2="1352" y2="1461.75" xlink:href="#Dull_Brass"/><linearGradient id="Dull_Brass-54" x1="-279.76" y1="337.17" x2="962.53" y2="1793.89" xlink:href="#Dull_Brass"/><linearGradient id="Dull_Brass-55" x1="-84.83" y1="170.94" x2="1157.46" y2="1627.66" xlink:href="#Dull_Brass"/><linearGradient id="Dull_Brass-56" x1="-217.13" y1="283.76" x2="1025.16" y2="1740.48" xlink:href="#Dull_Brass"/><linearGradient id="Dull_Brass-57" x1="262.77" y1="-125.49" x2="1505.06" y2="1331.22" xlink:href="#Dull_Brass"/><linearGradient id="Dull_Brass-58" x1="283.18" y1="-142.91" x2="1525.47" y2="1313.81" xlink:href="#Dull_Brass"/><linearGradient id="Dull_Brass-59" x1="161.36" y1="-39.02" x2="1403.65" y2="1417.7" xlink:href="#Dull_Brass"/><linearGradient id="Dull_Brass-60" x1="23.21" y1="78.8" x2="1265.5" y2="1535.51" xlink:href="#Dull_Brass"/><linearGradient id="Dull_Brass-61" x1="-103.36" y1="186.74" x2="1138.93" y2="1643.45" xlink:href="#Dull_Brass"/><linearGradient id="Dull_Brass-62" x1="300.66" y1="-157.81" x2="1542.95" y2="1298.91" xlink:href="#Dull_Brass"/><linearGradient id="Dull_Brass-63" x1="-74.03" y1="161.73" x2="1168.26" y2="1618.45" xlink:href="#Dull_Brass"/><linearGradient id="Dull_Brass-64" x1="240.19" y1="-106.24" x2="1482.48" y2="1350.48" xlink:href="#Dull_Brass"/><linearGradient id="Dull_Brass-65" x1="254.31" y1="-118.29" x2="1496.6" y2="1338.43" xlink:href="#Dull_Brass"/><linearGradient id="Dull_Brass-66" x1="128.79" y1="-11.24" x2="1371.08" y2="1445.48" xlink:href="#Dull_Brass"/><linearGradient id="Dull_Brass-67" x1="215.83" y1="-85.46" x2="1458.11" y2="1371.26" xlink:href="#Dull_Brass"/><linearGradient id="Dull_Brass-68" x1="-199.53" y1="268.76" x2="1042.75" y2="1725.47" xlink:href="#Dull_Brass"/><linearGradient id="Dull_Brass-69" x1="-87.14" y1="172.91" x2="1155.15" y2="1629.63" xlink:href="#Dull_Brass"/><linearGradient id="Dull_Brass-70" x1="317.12" y1="-171.85" x2="1559.41" y2="1284.87" xlink:href="#Dull_Brass"/><linearGradient id="Dull_Brass-71" x1="241.9" y1="-107.7" x2="1484.19" y2="1349.02" xlink:href="#Dull_Brass"/><linearGradient id="Dull_Brass-72" x1="-12.66" y1="109.39" x2="1229.63" y2="1566.11" xlink:href="#Dull_Brass"/><linearGradient id="Dull_Brass-73" x1="-365.78" y1="410.53" x2="876.5" y2="1867.25" xlink:href="#Dull_Brass"/><linearGradient id="Dull_Brass-74" x1="139.63" y1="-20.49" x2="1381.92" y2="1436.23" xlink:href="#Dull_Brass"/><linearGradient id="Dull_Brass-75" x1="224.17" y1="-92.58" x2="1466.46" y2="1364.14" xlink:href="#Dull_Brass"/><linearGradient id="Dull_Brass-76" x1="-44.19" y1="136.28" x2="1198.1" y2="1593" xlink:href="#Dull_Brass"/><linearGradient id="Dull_Brass-77" x1="-264.97" y1="324.56" x2="977.32" y2="1781.28" xlink:href="#Dull_Brass"/><linearGradient id="Dull_Brass-78" x1="177.45" y1="-52.73" x2="1419.73" y2="1403.99" xlink:href="#Dull_Brass"/><linearGradient id="Dull_Brass-79" x1="426.23" y1="-264.89" x2="1668.51" y2="1191.83" xlink:href="#Dull_Brass"/><linearGradient id="Dull_Brass-80" x1="-161.72" y1="236.51" x2="1080.57" y2="1693.22" xlink:href="#Dull_Brass"/><linearGradient id="Dull_Brass-81" x1="72.93" y1="36.4" x2="1315.22" y2="1493.12" xlink:href="#Dull_Brass"/><linearGradient id="Dull_Brass-82" x1="-178.41" y1="250.74" x2="1063.88" y2="1707.46" xlink:href="#Dull_Brass"/><linearGradient id="Dull_Brass-83" x1="-197.6" y1="267.11" x2="1044.69" y2="1723.83" xlink:href="#Dull_Brass"/><linearGradient id="Dull_Brass-84" x1="-218.58" y1="285" x2="1023.71" y2="1741.72" xlink:href="#Dull_Brass"/><linearGradient id="Dull_Brass-85" x1="-240.8" y1="303.95" x2="1001.49" y2="1760.66" xlink:href="#Dull_Brass"/><linearGradient id="Dull_Brass-86" x1="208.58" y1="-79.29" x2="1450.87" y2="1377.43" xlink:href="#Dull_Brass"/><linearGradient id="Dull_Brass-87" x1="-289.78" y1="345.72" x2="952.51" y2="1802.44" xlink:href="#Dull_Brass"/><linearGradient id="Dull_Brass-88" x1="-199.51" y1="268.74" x2="1042.78" y2="1725.45" xlink:href="#Dull_Brass"/><linearGradient id="Dull_Brass-89" x1="191.98" y1="-65.13" x2="1434.27" y2="1391.59" xlink:href="#Dull_Brass"/><linearGradient id="Dull_Brass-90" x1="59.91" y1="47.51" x2="1302.19" y2="1504.22" xlink:href="#Dull_Brass"/><linearGradient id="Dull_Brass-91" x1="327.21" y1="-180.45" x2="1569.5" y2="1276.27" xlink:href="#Dull_Brass"/><linearGradient id="Dull_Brass-92" x1="282.82" y1="-142.6" x2="1525.11" y2="1314.12" xlink:href="#Dull_Brass"/><linearGradient id="Dull_Brass-93" x1="-150.13" y1="226.62" x2="1092.16" y2="1683.34" xlink:href="#Dull_Brass"/><linearGradient id="Dull_Brass-94" x1="210.28" y1="-80.73" x2="1452.57" y2="1375.98" xlink:href="#Dull_Brass"/><linearGradient id="Dull_Brass-95" x1="222.74" y1="-91.36" x2="1465.03" y2="1365.36" xlink:href="#Dull_Brass"/><linearGradient id="Dull_Brass-96" x1="-184.66" y1="256.07" x2="1057.63" y2="1712.79" xlink:href="#Dull_Brass"/><linearGradient id="Dull_Brass-97" x1="206.7" y1="-77.68" x2="1448.98" y2="1379.04" xlink:href="#Dull_Brass"/><linearGradient id="Dull_Brass-98" x1="107.79" y1="6.67" x2="1350.08" y2="1463.39" xlink:href="#Dull_Brass"/><linearGradient id="Dull_Brass-99" x1="115.23" y1="0.32" x2="1357.52" y2="1457.04" xlink:href="#Dull_Brass"/><linearGradient id="Dull_Brass-100" x1="420.5" y1="-260.01" x2="1662.79" y2="1196.71" xlink:href="#Dull_Brass"/><linearGradient id="Dull_Brass-101" x1="155.02" y1="-33.61" x2="1397.31" y2="1423.11" xlink:href="#Dull_Brass"/><linearGradient id="Dull_Brass-102" x1="161.01" y1="-38.71" x2="1403.29" y2="1418.01" xlink:href="#Dull_Brass"/><linearGradient id="Dull_Brass-103" x1="394.64" y1="-237.96" x2="1636.93" y2="1218.76" xlink:href="#Dull_Brass"/><linearGradient id="Dull_Brass-104" x1="150.25" y1="-29.54" x2="1392.54" y2="1427.18" xlink:href="#Dull_Brass"/><linearGradient id="Dull_Brass-105" x1="374.34" y1="-220.64" x2="1616.62" y2="1236.08" xlink:href="#Dull_Brass"/><linearGradient id="Dull_Brass-106" x1="-36.65" y1="129.85" x2="1205.64" y2="1586.56" xlink:href="#Dull_Brass"/><linearGradient id="Dull_Brass-107" x1="-105.17" y1="188.28" x2="1137.12" y2="1645" xlink:href="#Dull_Brass"/><linearGradient id="Dull_Brass-108" x1="147.79" y1="-27.44" x2="1390.08" y2="1429.27" xlink:href="#Dull_Brass"/><linearGradient id="Dull_Brass-109" x1="159.64" y1="-37.55" x2="1401.93" y2="1419.17" xlink:href="#Dull_Brass"/><linearGradient id="Dull_Brass-110" x1="-179.84" y1="251.97" x2="1062.44" y2="1708.68" xlink:href="#Dull_Brass"/><linearGradient id="Dull_Brass-111" x1="-318.88" y1="370.54" x2="923.41" y2="1827.25" xlink:href="#Dull_Brass"/><linearGradient id="Dull_Brass-112" x1="224.44" y1="-92.81" x2="1466.73" y2="1363.91" xlink:href="#Dull_Brass"/><linearGradient id="Dull_Brass-113" x1="262.01" y1="-124.85" x2="1504.3" y2="1331.87" xlink:href="#Dull_Brass"/><linearGradient id="Dull_Brass-114" x1="435.48" y1="-272.78" x2="1677.77" y2="1183.94" xlink:href="#Dull_Brass"/><linearGradient id="Dull_Brass-115" x1="168.86" y1="-45.41" x2="1411.14" y2="1411.31" xlink:href="#Dull_Brass"/><linearGradient id="Dull_Brass-116" x1="-27.82" y1="122.32" x2="1214.47" y2="1579.04" xlink:href="#Dull_Brass"/><linearGradient id="Dull_Brass-117" x1="-118.08" y1="199.29" x2="1124.21" y2="1656.01" xlink:href="#Dull_Brass"/><linearGradient id="Dull_Brass-118" x1="63.95" y1="44.06" x2="1306.24" y2="1500.78" xlink:href="#Dull_Brass"/><linearGradient id="Dull_Brass-119" x1="-137.38" y1="215.75" x2="1104.91" y2="1672.47" xlink:href="#Dull_Brass"/><linearGradient id="Dull_Brass-120" x1="89.16" y1="22.56" x2="1331.45" y2="1479.28" xlink:href="#Dull_Brass"/><linearGradient id="Dull_Brass-121" x1="-153.07" y1="229.14" x2="1089.21" y2="1685.85" xlink:href="#Dull_Brass"/><linearGradient id="Dull_Brass-122" x1="116.9" y1="-1.1" x2="1359.19" y2="1455.62" xlink:href="#Dull_Brass"/><linearGradient id="Dull_Brass-123" x1="147.83" y1="-27.48" x2="1390.12" y2="1429.24" xlink:href="#Dull_Brass"/><linearGradient id="Dull_Brass-124" x1="-166.05" y1="240.2" x2="1076.24" y2="1696.92" xlink:href="#Dull_Brass"/><linearGradient id="Dull_Brass-125" x1="72.81" y1="36.5" x2="1315.1" y2="1493.22" xlink:href="#Dull_Brass"/><linearGradient id="Dull_Brass-126" x1="173.9" y1="-49.71" x2="1416.19" y2="1407.01" xlink:href="#Dull_Brass"/><linearGradient id="Dull_Brass-127" x1="-180.85" y1="252.82" x2="1061.44" y2="1709.54" xlink:href="#Dull_Brass"/><linearGradient id="Dull_Brass-128" x1="204.06" y1="-75.43" x2="1446.35" y2="1381.29" xlink:href="#Dull_Brass"/><linearGradient id="Dull_Brass-129" x1="208.68" y1="-79.37" x2="1450.97" y2="1377.35" xlink:href="#Dull_Brass"/><linearGradient id="Dull_Brass-130" x1="-190.68" y1="261.21" x2="1051.61" y2="1717.93" xlink:href="#Dull_Brass"/><linearGradient id="Dull_Brass-131" x1="-156.84" y1="232.35" x2="1085.45" y2="1689.07" xlink:href="#Dull_Brass"/><linearGradient id="Dull_Brass-132" x1="-12.51" y1="109.26" x2="1229.78" y2="1565.98" xlink:href="#Dull_Brass"/></defs><g id="Capa_2" data-name="Capa 2"><g id="Capa_1-2" data-name="Capa 1"><path class="cls-1" d="M1112.76,626.18h17.31l-18.38-26.92h10.15c-12.78-24.28-34.81-32.74-59-39.24l20.92-5c-25.59-13.6-50.44-15.36-78.76-7.37l13.65-12.41L1017.3,533c-27.62,1.3-55.3,2.32-80.83,15.37-10.19,5.21-16.64,13.61-19.49,24.58-1.9,7.31-3.13,14.79-4.8,22.86,27.65,3.92,52,14.55,74.55,30.09,7.32,5,9.18,9.18,3.73,16.53-10,13.52-19.65,27.32-29.34,40.85,22.36-6,41-19,57.82-36a323.86,323.86,0,0,1-14.6,37.65c-12.13,26.14-27.62,50-49.7,69-13.62,11.73-29,15.09-46.12,9.2-6.59-2.26-13.13-4.68-19.79-6.72-16.88-5.17-29.57,1.15-36.19,18l18.1,6a3.51,3.51,0,0,1-3,1.35,39.73,39.73,0,0,1-5.67-.69C809,768.45,762.87,744,726.5,703c-21.82-24.59-35.17-53.33-38.18-86.4-2.82-31,22.12-50.63,50-39.41,11.24,4.53,17.19,13.79,16.2,25.24-1,11.12-10.63,23.14-21.31,23.64-5.44.26-12.11-2.82-16.39-6.52-5.1-4.41-4.32-9.61,0-17.42.52,2.51.83,4.26,1.25,6,2.43,10,12.76,15.06,20.18,8.5,4.56-4,8.11-11.8,7.95-17.78-.13-4.81-5.52-11.64-10.28-13.8-20.21-9.15-36.7.86-39.68,22.92-3.12,23,8.07,41.72,28.59,42.67,35.9,1.67,55.21-10.42,61.66-46.1,4.34-24-10.39-48-33-57.4-22.31-9.29-51.9-1.56-66.85,18.36-5.92,7.91-10.1,17.13-15.11,25.82-7.9-22.33-20.29-40.23-45.14-45.79-33.08-7.41-62.59,10.9-68.26,42.3-5.88,32.56,13.81,57.93,48.56,62.58,28,3.76,43.77-12.38,41.59-41.81-2-27.21-24.75-30.76-40.91-23.12-4.53,2.15-8.13,9.34-9.26,14.81-1.45,7,1.77,13.75,9.05,17.21,10.53,5,17,.29,21-15.75,4.35,6.35,4.55,13-.12,17.6-3.82,3.75-10.18,7-15.32,6.9-11.59-.29-21.28-11.45-22.53-23.37s4.48-21.56,16.4-25.9c21.2-7.71,50,0,49.42,36.28-.35,20-6.28,38.79-15.54,56.36-23.73,45-62,73.73-107.24,94.26-19,8.62-38.46,15.94-59.85,16.8l19.07-6.6c-10.77-19.16-20.77-23.19-39.71-16.77q-5.42,1.83-10.72,3.94c-21.75,8.63-40.69,4.92-57.5-11.8-21.24-21.14-36.74-46-49.36-72.86-3.6-7.66-6.3-15.74-9.65-24.23,17.56,10.07,34.12,18.78,49.68,29,3.83,2.53,5.08,9.93,6.13,15.36.53,2.76-2,6.12-3.27,9.43,17.52-.23,24.55-6,26.13-20.25-7.8-5.52-15.74-10.27-22.48-16.34-2.69-2.42-4.8-8.75-3.47-11.53,1.6-3.35,6.9-5.82,11.05-6.81s8.83,0,13.2.71c16.43,2.56,18.29,5.09,16.15,21.09,8.86,2.1,28-12.49,28.84-19.84-6.24-1.83-13.05-2.24-17.42-5.72-2.46-2-.88-9-1.12-13.72h2.83c1.7,12.8,4.87,14.7,19.36,11.44l4.32,7.57c1.29-5.11,3.32-8.44,2.56-10.91-7.69-24.81-30.49-36-48.24-51.83L420,578.12c-2.22-1.89-3.5-3.35-5.09-4.27-17-9.88-31.72-22-41.79-39.31a33.77,33.77,0,0,0-8.34-9.07c-2.61-2-6.09-3-9.18-4.4l-1.91,2,2.8,11.21-30.28-1.92L324.75,535l11.65,7.56c-26.69-1.18-54.81,3-70.49,11.82l24,4.6c-11.3,3.22-20,5-28.21,8.25-7.84,3.13-15.75,6.92-22.37,12s-11.51,12.16-17.16,18.37l2,1.64,10.87-1.12L212.2,627.37h22.48c-29.58,15.37-39.91,39.25-41.08,69.43l19.15-12.19c-8.82,14.45-9.62,29.67-9.16,45,.77,25.26,2,50.5,3.11,77.28l21.46-13.37c7.19,24.82-3,42.33-24.42,55.7,29.56,15.81,48.29,1.63,65-20.53-2.74,7.17-5.64,13.94-10.16,19.34-4.75,5.68-11.05,10.05-16.72,15,68.11,148,226.65,272.11,428.75,273,203.87.87,365-125.89,432.24-274.1-13-7.25-22.78-17.22-26.79-33.75,24.93,29.22,43.64,35.06,63.33,20.66-27.92-19.2-28.39-38.68-22.65-55L1139.31,808c0-20.71-1.11-38.82.28-56.74,1.84-23.81,3.84-47.23-10.66-68.63l2-1.29,19.77,14.59C1149.37,666.88,1133.77,646,1112.76,626.18ZM946,589.22c-5.12,5.65-14.26,4.6-19.09-.84l39-24.1C958.44,573.72,952.65,581.87,946,589.22Zm-67.47,210.6c-11.19,12.3-23.09,6-34.42,3.07-42.74-11.06-80.1-31.25-108.28-66.13-6-7.48-10.93-15.89-15.55-24.62C760.84,763.18,815.25,788.92,878.52,799.82ZM696.26,693.58c21.18,41.31,51.34,74.12,91.55,97.24,39.87,22.93,83.59,32.08,128.88,34.42-32,13-62.1,3.85-92-7.74-55.79-21.63-98.94-57.32-124.81-112.21-1.34-2.86-2.45-5.83-3.58-8.78A4.8,4.8,0,0,1,696.26,693.58Zm-72.79,17.34,2.32,1.83C617,724.2,609.18,736.47,599.4,747c-32.2,34.46-73.38,52-119,60-4.08.71-9-3.59-16-6.6C529.62,788.33,584.17,763,623.47,710.92Zm25.18-18.17c-15,41.3-41.35,73.56-77.49,98-31.43,21.29-66.1,35.28-103.49,40.77-12.6,1.85-26.15-2.73-39.44-5.2C525.26,820.33,602,781.44,648.65,692.75ZM394.5,597.81c-3,5.79-13.22,7-19,.45-6.36-7.23-12.11-15-19.93-24.78ZM272,605.88c-11-5.23-16.78-14.93-14.34-29.45,12.38,10.34,25.61,13.32,43.08,7.6-5.83-1.4-9.16-2.22-12.5-3s-6.64-1.48-10.27-2.28c15.3-14.16,57.45-27.42,71.12-18.36l-48.8,13.19c5.52,4.94,9.63,8.63,14.54,13-15,8-29.72,10-45.46,6.86C285.62,610,306.12,606.24,326,605.2c-4.07,18.32-24.78,23.54-44.45,13.09l23.54-1.79C293.54,612.91,282.12,610.72,272,605.88Zm689.16,404.23c-84.41,75.86-185,106.2-296.78,104.89-73.25-.86-142.88-16.43-207.27-52.1q-93.21-51.65-147.8-143.51a18.52,18.52,0,0,1-2.41-6.15C398.81,1035.73,520.17,1103,674,1102.33s274.57-69,365.42-191.89A361.44,361.44,0,0,1,961.13,1010.11Zm90.09-166.76c-3.2,5-7.63,9.2-10.54,14.32C974,975,875.46,1050.4,741.91,1071.45,576,1097.6,440.12,1040.67,336.48,908.27c-10.9-13.92-19.41-29.7-29.21-44.5-5-7.56-10.66-14.71-15.6-22.32a69.57,69.57,0,0,1-8-17.21c17.4,22,40.53,29.56,66.8,29.78-8.75-15.6-18.08-30.23-25.42-45.8-11.63-24.68-11.11-24.89-31.45-43.81a70.07,70.07,0,0,1-10.69-12.73l52.58,29,3.37-1.54,3.21-42.22c4.84,16,5.32,35.59,31.08,34.23.87-4.35,1.88-9.45,2.89-14.54l1.93-.37c1.2,7.69,2.4,15.39,4.1,26.31l-35.23-9.9c-.91,4.12-2.11,9.51-3.51,15.84L326,784.84c2.12,5.3,3.13,9.74,5.46,13.31,11.59,17.78,28.63,28.71,48.14,35.53,124.62,43.54,241.17-26.37,275.89-127.2,8.29-24.06,11-50,16.56-76.64a75.24,75.24,0,0,1,2.3,7.43c3.52,18.7,6.16,37.6,10.56,56.08,10.93,45.85,37.87,81.44,74.83,109.29C823,850.36,892.87,858,966.94,832.7c18.24-6.24,34.17-16.82,45.2-33.32,2.5-3.75,4-8.18,7.17-14.8l-18.32,4-3.34-16.34L963,782.74c1.15-10.12,2-17.58,2.84-25l2.28-.12c.84,4.38,1.67,8.77,2.48,13,14.73,1.75,24.94-5.94,26.73-19.38a33.68,33.68,0,0,1,5.27-14.56c1,14,2,27.9,3,43,21.45-5.16,38.39-15.69,54.64-27.66l1.91,2.62c-9.78,7.63-19.57,15.23-29.3,22.93-2.11,1.67-5.31,3.44-5.69,5.58-4.75,26.37-18.13,48.39-35.61,70.87,29.1-.26,52.77-7.61,68.82-32.19l2.36,1.84C1059,830.21,1055.34,837,1051.22,843.35Zm-13.5-227.09,23.13,2.06c-20.07,10.78-39.61,5-44.94-13.13,20.22,1,41.06,5.08,58.54-12.11-22.58,2.8-31.22,1.6-46.45-6.6l14.08-12.71-48-13.29c12.41-7.67,49.25,1,70.57,18.07l-23.4,5.46c17.18,5.72,30.57,2.94,42.84-6.87C1088.73,597.57,1076.12,607.66,1037.72,616.26Z"/><path class="cls-2" d="M675.18,233.81c15.78.28,32.06.17,44.27,14.23V237.9c38.47,3.32,70.8,16.44,88.49,53,8.66,17.87,15.1,36.81,23.07,56.58,46-36.71,65.45-85.11,62.16-142.83-2.81-49.23-23-90-64.54-119.36-.35,4.75-.42,10.39,2.34,12.9,54.48,49.46,65.31,137,27.4,201.93-3.24,5.54-7.19,10.67-10.81,16,15.56-35.82,28-71.74,25-111.35-2.94-40.12-18-74.37-48.34-102.16-2.86,7.8-5.14,14.39-7.68,20.87-14.3,36.4-38.19,62.69-78.67,67.48-18.53,2.19-28.44,8.44-27.5,27.78,0,.21-.44.43-.65.62-6.4-17.85-4.75-25.55,7.35-34a12.9,12.9,0,0,0-1.72-2.24c-18.07-15.11-62.22-16.26-81.11-1.93-2.38,1.81-5.43,4.78-5.49,7.28-.46,19.06-.25,38.14-.25,58C642.78,234,659.06,233.52,675.18,233.81Z"/><path class="cls-3" d="M1076.52,1153.55l-4.8,6.79c21.94-70.52,56-136.07,73.58-209.21-32.59,17.14-60,37.4-78.45,68.15-23.75,39.64-17,81.47-8.24,124.66-3.59-4.68-5.68-8.77-8.94-11.44-31.61-25.89-63.44-51.51-88.37-84.41l-17.46,12.22c10.77,13,19.91,26.55,31.42,37.58,25.91,24.81,52.82,48.59,79.64,72.43,32.5,28.9,60.72,60.5,69.9,104.88.68,3.28,1.62,6.5,2.5,10,17.81-11.47,28.75-15.49,38.94-14.51,9.2.89,11.06,4.45,7.23,12.18-2.23-1.76-4.71-5.33-6.9-5.16-12.21.92-23.91,4.31-32.49,13.54-2.56,2.76-4.48,8.91-3.1,11.8,1.64,3.44,6.93,6.61,11,7.16,18.29,2.46,37.57-13.83,39.34-32.24,1.59-16.55-5.16-30.38-14.34-43.25C1142.94,1201,1107.49,1180.15,1076.52,1153.55Zm20.59-130.45-32.65,127.31C1062.49,1103.26,1076.53,1062.44,1097.11,1023.1Z"/><path class="cls-4" d="M400.73,1060.38l-17.65-12.16-2.32,1.6c7.6,9.52,4.32,18.42-2.58,25-24.48,23.21-49.65,45.69-74.55,68.44l-1.88-1.93a8.22,8.22,0,0,1,1.13-2.14c14.52-14.63,29-29.29,43.65-43.81,8.32-8.27,17.12-16.07,25.16-24.59,2.92-3.08,4.26-7.66,6.31-11.55l-2-2.65c-7,1.08-14,2.75-21.09,3-4,.15-9.83-.83-11.6-3.47s-.54-8.69,1.5-11.88c3.65-5.72,8.91-10.41,13.85-15.94l-12-10.43c-3.3,11.76-5.89,21.78-9,31.65-3.19,10.29-6.49,20.57-10.38,30.61a299.1,299.1,0,0,1-12.7,28.67c-4.71,9.2-10.4,17.89-15.67,26.81,6-19.06,13.55-37.1,21.56-54.94s12.33-35.91,5.25-55.15c-.38-1-.05-2.3-.05-3.46l1.26-.36,7.33,17.1c2.22-8.23,4.16-14.6,5.56-21.08.47-2.17.49-5.53-.81-6.84-13.3-13.42-26.91-26.53-40.76-40.06-7.07,7.7-8,15.65-4.57,23.15,4.67,10.31,10.73,20,16.39,29.85,3.11,5.4,6.72,11.1.68,16.19-6.24,5.26-12.49,2.93-17.67-2.54a60.12,60.12,0,0,1-6.64-8.06c-4.2-6.37-7.58-4.53-10.26,1-4.35,9-2.3,17.73,1,26.66,8.86,24.19,12.57,49.12,8.37,74.74-.89,5.47-2.52,12.1-6.26,15.53-7.1,6.53-16.5,10.49-24,16.65-22.28,18.32-45.26,36-65.64,56.31-10.82,10.77-19.17,25.53-24.45,40-8.9,24.4,5.25,45.58,30.59,49.79,6.63,1.1,14.15,1.66,17.4-5.92,3.61-8.41-1.79-14.31-8.52-17.87a81.89,81.89,0,0,0-21.27-7.81c-4.22-.89-9.08,1.28-13.73,2.08-.85-7.1.77-9.56,9-9.83,14.55-.5,26.6,6.19,37.29,14,5.5-15.38,9.91-31,16.55-45.57,12.21-26.85,33.15-47,54.61-66.48,25.86-23.43,52.53-46,77.71-70.12C377.86,1090,388.5,1074.89,400.73,1060.38Z"/><path class="cls-5" d="M783.91,1237.3c-.89-.32-1.84-.46-2.76-.71a405.2,405.2,0,0,0-158.39-10.29c-27.42,3.55-54.24,11.94-81.27,18.4-6.51,1.55-9.09,5-6.54,12.64,2.25,6.72,2.45,14.36,2.34,21.58-.18,11.56-1.36,23.1-2.12,34.67,78.38-34.26,203.36-31.13,272.78-1.56,0-13.78-.12-27.54,0-41.3.1-8.17,4-19.06.1-23.8C803.3,1241.05,792.26,1240.26,783.91,1237.3Zm-236,56.4c11.9-12,27.46-15.21,43.9-16ZM638.05,1259c41.14-5.93,82-6.14,124.17,6.08Zm41.29-15c42.48-3.53,84.81-6,123,18.13C762.06,1250.82,720.88,1246.17,679.34,1244Z"/><path class="cls-6" d="M534.11,402.9c5.88,20.09,3.29,40,.15,60.17q137.81-48.82,274.6-1.37c0-15.69-.91-31.83.25-47.82,1.29-17.74,2.15-17.8-15.48-23.5-57.24-18.49-116-21.26-175-13.65-26.19,3.37-51.78,11.55-77.5,18.14C538.14,395.63,533.54,401,534.11,402.9Zm268.16,38.77-42.6-15.59C775.65,426.51,790.49,430,802.27,441.67ZM587.11,412.61c43-12.16,83.87-12.61,126.44-6.11ZM674,391.66c-42.93,2.26-85.61,6.23-127.25,17.87C586.58,385.25,630.14,387.33,674,391.66Z"/><path class="cls-7" d="M1338.13,691.82a61.75,61.75,0,0,0-26.33-9.22c-19.62-1.87-19.71-1-11.32-18-9-5.39-14-4.8-25.74,3.23-6.14,4.21-12.25,8.06-20.23,5.27-8.46-3-9.86-8.5-3.65-15,2.48-2.58,5-5.12,7.52-7.68-.4-1.22-.81-2.44-1.21-3.67-6.49.81-13.58.23-19.31,2.74a122.76,122.76,0,0,0-25.12,15.16c-21.6,16.62-25.94,16.14-40.32-6.55-6.5-10.24-13.5-11.27-23-3.67l9.44,28.36c23.51-8.83,50,2.57,74.78-13.8l-7.57,9,45.48,6a4.47,4.47,0,0,1-3.62,1.78c-1,.13-2,.41-3,.63,1.09,1.89,1.73,3,3.14,5.4-22.08-12.18-44.12-6.4-68.34-7.8l19.47,14.64c-30.51-14.85-37.32-16.07-59.46-9.51-1,9.19-2,18.24-3,27.3l-4.1,1.48-2.34-7.37c-1.51,7.55-1,13.59-1.64,19.52s1.89,8.59,7,11.53c12.32,7.11,23.74,15.77,36,23,5.37,3.19,11.85,4.54,17.81,6.76a8.81,8.81,0,0,1,1.66,1.27l-7.36,2.29L1227,801.84l-7.26,1.78c-4.69-11.54-21.6-28.43-34.84-34.27v11c-3.3-21.37-20.54-27.29-37.17-35.89v62c4.19-7.07,6-14.47,9.59-20.87,1.49-2.66,7.43-5.05,10.18-4.11,2.54.86,4.6,6.24,4.9,9.79.41,5-1.52,10-1.53,15.08a85.31,85.31,0,0,0,1.69,18.76c.52,2.35,4.24,4,6.51,5.94,1.66-2,3.9-3.77,4.87-6.06,1.95-4.66,2.85-9.76,4.85-14.38,2.55-5.88,7.09-8.84,13.79-7,6.54,1.83,6.55,6.92,5.93,12.21-.81,6.91-2.41,13.83-2.33,20.72,0,3.51,3,7,4.7,10.47,2.24-2.87,4.67-5.62,6.66-8.66,1-1.53,1-3.69,1.79-5.4,2.93-6.29,3.89-16.18,13.57-14,8.75,2,6.38,11.25,6.55,17.86s-1.16,13.27-1.16,19.91c0,6.43,3.59,8.07,9.55,6,13.13-4.53,19-16,13.39-28.67-2.45-5.53-7-10.37-11.39-14.73-6.58-6.55-6.46-10,1.94-14,3.93-1.87,8.73-3.52,3.82-8.46-2.38-2.4-6.52-3.5-10.06-4.2-4.61-.91-10.14.5-13.94-1.57s-7.65-6.94-8.21-11c-.32-2.34,5.58-6,9.23-8.24,2.43-1.45,5.82-1.3,8.78-1.87.33-.88.65-1.77,1-2.66-3.58-2.5-6.87-6.4-10.8-7.22-7.66-1.59-16-3.11-23.47-1.7-19.26,3.63-31.45-5.55-41.81-20,9.16,1.38,18.09,3.56,27.08,3.8,6.17.17,9.63-3.46,4.59-10a71.32,71.32,0,0,1-6.21-9.55c-3.28-6-3.06-12,2.72-16.09,6.38-4.48,10.44.71,14.33,5,6.19,6.78,11.88,14.12,18.74,20.14,3.8,3.33,9.36,5.51,14.43,6.32,7,1.1,9.08-2.84,5.91-9.27-2.11-4.26-4.59-8.34-6.5-12.68-2.69-6.1-1.2-11.24,4.67-14.66s11-2,15.16,3.12c2.39,2.94,4,6.56,6.63,9.25,5,5.17,10.15,10.42,16,14.53,2,1.39,6.31-.56,9.57-1-.42-2.81-.38-5.8-1.37-8.4-2.11-5.59-5.65-10.77-7-16.5-1.82-8,4.6-12.61,12.11-9.23a24,24,0,0,1,6.89,4.84c6.72,6.7,12.75,14.2,20,20.17,2.86,2.35,9.47,3.42,12.47,1.71C1346.94,714.09,1348.11,698.2,1338.13,691.82Z"/><path class="cls-8" d="M422.12,544.75c13.91,19.13,29.36,37.15,44.12,55.66l3.65-2.23c-2-4-3.48-8.39-6.14-11.89-11.9-15.63-24.05-31.08-36.29-46.45-8.73-11-12.26-23.37-11.6-37.22.49-10.45,1-20.92,1-31.39.12-37.89,0-75.77,0-116.1,7.76,36,8.94,70.32,9.2,104.83a304.39,304.39,0,0,0,9.35-32.76c2.51-12,6.15-24.27,5.53-36.23-2.13-41.11-14.25-79.69-33.61-116-1.95-3.67-4.16-7.21-6.25-10.82l-2.41.7c1.7,42.45,2.75,84.94,5.28,127.34,2.53,42.57,6.53,85.07,9.89,127.59a178.43,178.43,0,0,1-13.24-34C383,418.09,366,350.18,348.13,282.48c-5.19-19.71-12.24-38.93-19.17-60.65-1.4,4.48-2.12,6.25-2.5,8.09-16,77.37-8.54,152.07,30.73,221.15C375.89,484,399.77,514,422.12,544.75Zm-15.76-29.32c-40.82-54.53-56.49-118.06-65.25-183.92C357.32,394.85,382.56,454.89,406.36,515.43Z"/><path class="cls-9" d="M694.05,1509.53c-6.76-3.41-14.17-5.58-20.85-9.14-16.6-8.86-30-4.57-43.61,7.3-12.13,10.55-21.82,20.86-18.25,38.41.74,3.65.11,7.59.11,11.39,0,7.93-.08,15.86,0,23.78.26,21.23,11.42,37.08,31.61,43.72,18.54,6.1,37.43,6.07,56.14.64,18.41-5.34,29.43-17.63,33.23-36.52C740.72,1548.09,731.35,1528.37,694.05,1509.53Z"/><path class="cls-10" d="M791.18,1360.14c-15.13-8.08-30.9-16.07-47.36-20.32-41-10.58-82.93-10.57-124.64-3.68-21,3.46-41.78,8.39-59.72,20.71-19.43,13.34-19.2,28.16.72,40.91,21.61,13.82,46.18,18.22,71.71,21.74v-14.21c-8.62-4.32-17.58-7.77-25.35-13-9.17-6.15-9-15.33-.09-21.94a56.77,56.77,0,0,1,15.9-8.3c32.29-10.62,64.9-10.4,97.37-1a60.69,60.69,0,0,1,19.12,9.74c9.34,7,8.61,17.22-1.21,23.4a61,61,0,0,1-14.46,6.55c-12.63,3.87-12.95,4.14-8.3,18.43,28.2-3.49,56.2-8.08,79.1-27.28C805.5,1382.2,804.49,1367.25,791.18,1360.14Z"/><path class="cls-11" d="M465.52,1191.89c-16.75-6.39-17-5.76-6.11-19.56.32-.42.19-1.19.33-2.18-5.49-5.07-11.59-5-18.36-2.37-4.95,1.92-10.29,4.51-15.27,4.14-3.87-.28-8.94-4-10.61-7.47-1-2.2,2.83-7.24,5.27-10.41,1.81-2.35,4.87-3.73,8.28-6.2-7.38-7-14.91-5.93-21.64-3.61-9.53,3.27-18.32,8.74-27.88,11.85-4.79,1.56-10.59,0-15.93-.2,1-5.14,1.61-10.44,3.3-15.36,1.09-3.16,4.16-5.6,5.71-8.68,1.41-2.8,2-6,3.29-10.26-26.33,2.65-41,20.41-57.58,34.05,20.18,3.09,39.77,6.31,59.43,8.94,5.7.76,11.63-.19,17.45-.33.77,0,1.55.1,3,.2l-4,4.56,34.46,14.34-5.34,5,.88-2.68L373.74,1169l-.88,1.9,6.23,9.1c-23.37-20.29-69.79-22.94-82.35-3.51,16.93,11.37,32.16,24.52,42.89,42.29a13.72,13.72,0,0,0,7.5,5.47,11.78,11.78,0,0,0,8.75-1.21c1.29-.87.84-4.94.5-7.48-.66-5-3.2-10.16-2.32-14.75.82-4.21,5.11-7.76,7.87-11.59,3.26,3,7.1,5.52,9.6,9,2.12,3,2.3,7.26,4,10.6,3.34,6.42,6.57,13.09,11.1,18.63,2.07,2.53,7.11,2.64,10.8,3.84.43-3.11,1.21-6.23,1.19-9.35,0-2.81-1-5.6-1.4-8.43-1.05-7.67-1-15.27,8.45-17.4s11.33,5.41,13.65,12.16c2.26,6.57,4.25,13.41,7.79,19.27,1.59,2.63,6.66,3.17,10.14,4.67.42-3.12,1.26-6.26,1.17-9.36-.2-6.26-1.61-12.57-1.06-18.73.23-2.64,3.74-6.16,6.47-7,2.09-.66,6,1.63,7.84,3.72,2.85,3.28,4.88,7.37,6.81,11.34,2.9,6,4.74,12.58,8.38,18,1.59,2.36,7.4,4.38,9.81,3.28,10.45-4.75,14.27-19.64,6.84-28.38A46.79,46.79,0,0,0,465.52,1191.89Z"/><path class="cls-12" d="M632.85,1449.11c-10.36,5.6-17.89,14.76-19.6,26.72s-1.69,24.2-2.51,37.69c46.17-34.62,46.17-34.62,120-46.18-7.69-7.24-13.35-13.82-20.25-18.6-4.57-3.17-6.24-6-6.1-11.34.33-13.25.63-26.54-.08-39.76-1.08-20-3.07-21.89-20.58-24.12-10.94-1.39-22.54.66-33.62,2.51-6.67,1.12-10.35,6.13-10.11,13.91.46,15.22-.1,30.48.22,45.71C640.37,1441.9,639,1445.76,632.85,1449.11Z"/><path class="cls-13" d="M1043.72,382.16c.33-5.86.8-11.72,1.21-17.73-9.17-1.24-14.87,3.17-18.22,9.36a194.43,194.43,0,0,0-11.92,27.74c-4.31,12.17-8.65,14.39-20.4,8.66l-6.93,10.27c12,1.58,9.89,9.23,8.73,17.47a74.78,74.78,0,0,0,16.4-11.11c4.7-4.34,8.66-9.47,12.95-14.26l1.37.91-9.47,15c20.41-5.93,45.46-19.38,59.53-31.54l4.38,4.88-37.68,22.22,8.22,3.75c-7.69.86-15.14.49-21.74,2.68-15.89,5.29-31.41,11.72-47,17.81-5.94,2.32-11.76,5-17.63,7.46,16,1.62,17.4,2.74,16.52,14.93,14.67,2.39,29.19,7.36,44.21,2.66.74-1.24,1.49-2.47,2.24-3.71-4.27-3.58-9.11-6.68-12.62-10.88-3.14-3.76-4.82-8.74-7.14-13.18,4.69-1.93,9.23-4.64,14.11-5.55,3.85-.73,8.11.86,12.2,1.22,10.4.93,20.81,2.43,31.21,2.38,7.26,0,14.84-1.63,19.56-9.77-2.64-.79-4.67-.92-6.12-1.91-3.83-2.62-7.4-5.62-11.07-8.46,4.1-3.91,7.6-9.53,12.48-11.25,5.28-1.87,11.86-.21,17.85.13,8.52.48,16.07-1.14,21.63-8.47-14.52-10.84-13.87-11.6,2-20.24a73.15,73.15,0,0,0,22.71-19.34c7.15-9.38,3.51-17.55-7.61-22.93-8-3.86-13.22-1.15-17.94,9.61-1.78,4.05-2.81,8.44-4.65,12.45-2.63,5.74-5.18,11.64-8.82,16.72-1.67,2.34-6.37,4.6-8.74,3.85-3-.93-6.14-4.67-7-7.81-1.12-4.07-.12-8.74.12-13.15.17-3.31.57-6.61.88-10-10.9-1.86-15.15,4.65-18.07,11.84-2.73,6.71-4.25,13.92-6.27,20.91-2.08,7.2-7,10.6-14.25,9.63C1045.43,394.41,1043.34,388.93,1043.72,382.16Z"/><path class="cls-14" d="M904.35,481c-4.08-2.7-9-4.69-12-8.3-2.49-3-2.68-8-4-12.31-8.49,2.44-10.52,8.55-12.11,15.21-3.79,15.93-7.95,31.78-11.48,47.77-.62,2.82.49,6.58,2.1,9.06.62,1,5.69.5,7.34-.92,20.93-18,45.48-33.46,48-65.07,0-.2.69-.34,1.84-.86-.59,6.11-1.13,11.67-2,20.26,11.93-16.73,28.58-26.94,29.34-48.39l5.3,8.33-17.61,26.46,7,.61c-5.15,3.36-11.26,6.18-15.88,10.56-17.89,17-35.34,34.47-52.87,51.84-2.62,2.6-4.82,5.62-8.59,10.06,9.48-4.76,16.21-9.33,23.65-11.61,12.67-3.9,25.85-6.11,38.68-9.53,4.8-1.28,9.23-3.95,13.83-6-.09-1.1-.19-2.19-.28-3.28-3.94-1.47-8.14-2.49-11.75-4.53-4.32-2.44-8.15-5.76-12.19-8.69,3.62-3.6,6.94-7.6,11-10.64,2.39-1.81,6-1.94,8.92-3.12,7.92-3.17,16.12-5.87,23.52-10,4.27-2.38,7.18-7.17,10.71-10.88-3.6-1.54-5.18-.75-6.63-1-3.47-.49-9.13-.61-9.8-2.41-1.17-3.12-.51-8.62,1.68-10.93,3.7-3.91,9-6.5,14-8.93,6.55-3.19,13.35-5.79,14.47-14.41-14-2.31-14.09-4.3-6.11-16.11,4.94-7.33,8-16.3,10.07-25,.72-3-3.28-9.13-6.6-10.67-11-5.11-17,.34-16.15,13.27.56,8.19,1.56,16.44,1,24.57-.18,2.77-4,6.64-6.9,7.45-2.18.62-6.51-2.17-8.11-4.6-3.2-4.91-5.18-10.61-7.74-16.14-7.84,3.25-8.15,9.71-7.61,16.07.51,6,2.22,11.83,3,17.8.77,6.14-2,11.65-8,11.95-3.81.2-8.74-3.31-11.56-6.56-3-3.5-4.23-8.62-6.23-13l-3.15-.31c-2,5-5.49,9.83-5.79,14.89-.51,8.44,1.75,17,1.35,25.49C909.86,472.74,906.36,476.83,904.35,481Z"/><path class="cls-15" d="M577.84,255.75c12.31-7.2,24.59-14.48,36.39-22.47,2.94-2,4-6.72,6-10.19-3.11-1.26-6.18-3.48-9.34-3.62-25.66-1.15-51.33-1.92-77-2.8v-1.15l85.77-3.35c.55-10.2.55-10.21-6.14-14.23-8.42-5.06-17.63-9.16-25.1-15.36-10.78-9-20.49-10.14-31.78-1.4-4.42,3.42-10.09,5.24-15.24,7.68-18.83,8.94-37.69,17.84-56.77,26.86,28.68,14.12,56.71,28,84.94,41.57C571.64,258.29,575.51,257.12,577.84,255.75Z"/><path class="cls-16" d="M538.26,720c-1.36-5.05-2-9.05-3.48-12.71-9.47-23.46-19.95-46.56-28.43-70.37-5.42-15.2-8-31.41-11.83-47.17l1.16-.16q19.27,47.85,38.56,95.7l2.56-1.06c1.61-20.68,1.13-41-7.37-60.55-3.16-7.23-5-15-7.76-22.43q-19.45-53-39.06-106C457.16,559.35,489.85,689,538.26,720Z"/><path class="cls-17" d="M696.87,545.36c16.53-9.22,34-11.55,54-7.57-23.19-25.56-120.82-88.27-134.63-86.63l15.85,16.15c-7.28-2.55-13.46-6.25-19.69-9.86-6.66-3.85-13.43-6.88-21.68-1.92,22.36,16.23,44.35,32.19,66.33,48.16-4.41-.18-7.56-2.2-10.87-3.89-23.7-12.11-47.27-24.48-71.28-35.94-5.08-2.42-11.82-1.4-17.8-2-.28,1.13-.55,2.26-.83,3.39.79.46,1.54,1,2.36,1.38a876.81,876.81,0,0,1,131.67,77.84C691.94,545.67,695.29,546.24,696.87,545.36Z"/><path class="cls-18" d="M653.75,126.34c2.63,4.37,5.06,10.16,11.13,6.16,2.73-1.8,4.31-6.93,4.55-10.67,1.53-24,2.54-48.07,3.72-72.12l.54,0c1.35,27.45,2.69,54.91,4.19,85.43,5.54-2.66,10.25-3.4,12.18-6.11,8.19-11.56,15.84-23.53,23-35.75a13.47,13.47,0,0,0,.4-10.76C702,57.84,690,33.38,678.15,8.85,676.77,6,675.31,3.18,673.71,0c-14.25,29-28.05,56.74-41.46,84.71-1,2.12,0,6,1.3,8.31C640.06,104.26,647.06,115.21,653.75,126.34Z"/><path class="cls-19" d="M1210.86,576.8c-.28-2.58.77-5.32,1.4-9-11.52.65-15.18,8.75-18.93,16.06s-5.95,15.4-9.74,22.68c-4.1,7.86-10,9.09-17.41,4.27a107.27,107.27,0,0,1-10.35-8.37c-6.18-5.24-10.84-3.35-14.84,2.86-7.5,11.66-6.34,20.11,3.86,31.64,12.63-8.15,25.19-16.1,37.57-24.31,7.3-4.83,14.33-10.08,20.6-14.52,0-.31-.26,1.91-.66,4.7l31.09-9c-.16,2.85-.25,4.54-.19,3.45l-46.74,18.37,16.88,5.84c-23.71-1.45-42.55,6-53.65,22.1,17.68-3,22.5-.82,31,14,8,14,13.1,14.38,24.42,1.64-2.05-1.51-4.2-2.85-6.06-4.51-5.28-4.73-11.7-10.21-6.68-17.6,5.19-7.65,11.32-1.29,16.33,2,9.11,5.89,18,11.42,28.18.69-2.71-2.49-5.38-4.72-7.8-7.19-5-5.07-8.9-10.79-3.23-17.47,5.88-6.92,11.25-1.73,16.58,1.65,5.06,3.21,10.08,6.65,15.54,9,2.3,1,5.7-.63,8.61-1.07-1.12-2.56-1.73-5.56-3.48-7.59-2.87-3.33-7.4-5.48-9.5-9.13s-2.11-8.54-3-12.89c4.37-.35,9.21-2.06,13-.76,6.81,2.32,12.9,6.68,19.47,9.78,9.12,4.29,12.23,2,11.56-8.11-1-15.75-14.9-23.32-31.46-17.19-15.36,5.69-15.35,5.69-16.12-10.14,0-.49-.76-1-2.62-3.17-3.24,2.48-7.2,4.6-9.87,7.79s-3.4,9-6.64,11.28c-3.83,2.67-9.45,2.77-14.29,4C1212.67,584.65,1211.3,580.78,1210.86,576.8Z"/><path class="cls-20" d="M893.37,358.72c2.52,6,6.89,11.29,10.71,16.71,4,5.75,7.75,11.54,1,17.6-7.12,6.36-12.83,1.85-18.21-3.09-3.86-3.55-7.61-7.22-11.41-10.84l-3.41.77c-.08,5.52-1.82,11.7.09,16.41,3.65,9,9.89,16.89,14,25.74,1.53,3.31,1.6,9.72-.49,11.63-2.28,2.09-8.38,1.87-11.81.36-3.75-1.65-6.22-6.08-9.5-9a70.93,70.93,0,0,0-7.12-5c-1.86,2.77-4.95,5.39-5.29,8.34-.48,4.2.75,8.71,1.78,13,1.65,6.74,4.72,13.28,5.44,20.09,1.6,15.3,2.13,30.71,3.16,47a66.79,66.79,0,0,0,2.29-7.45c1.44-8.1,3.1-16.19,3.91-24.35,1.8-18.23,15-27.58,29.21-19.56,6.1-12.8,2.39-25.58,1-38.56L904,428.89c11.92-10.4,17.63-27.92,16.5-47l7.47-4.61c-1.94,9.52-2.84,18.82-5.82,27.41-3.76,10.88-1.53,19.09,8,26.55,1.16-1.7,3.11-3.26,3.28-5,.76-7.46,3.33-15.84,1-22.32-5.24-14.28,2.84-20.4,12.34-27.09,5.61-3.94,9.36-9.18,6.79-16.71-17.27,1.18-16.48,1.34-13-15.77a53.7,53.7,0,0,0-1.34-24.93c-2.71-9.13-15.53-12.46-24.16-7.09-9.39,5.86-1.83,12.11.84,17.79,3.21,6.86,7.7,13.16,10.47,20.16,1.12,2.82.26,8.78-1.69,9.91-2.82,1.65-8,1.33-11.16-.17-3.82-1.78-6.43-6-10-8.59-2.71-2-6-3.18-9.06-4.73C893.93,350.73,892,355.42,893.37,358.72Z"/><path class="cls-21" d="M274.33,1020.15c14.36-9.19,16.65,6.41,25.1,11.87,4.2-11.22-6.14-15.73-8.26-23.45-10.33,4.73-18.74-1-17.79-11.45a57.19,57.19,0,0,1,3.22-12.88c2.31-6.81,1-12.4-5.18-17.36a17.37,17.37,0,0,0-2.74,2c-10.45,11.35-11.35,10.91-17.9-3.24A45.44,45.44,0,0,0,238.91,950c-3.77-3.1-9.68-4.52-14.77-4.88-7-.49-19.69,9.81-17.6,14.26,2.19,4.65,8.59,7.85,13.77,10.41,6.47,3.2,13.9,4.48,20.27,7.81,3,1.58,7,7,6.26,8.92-1.37,3.34-5.79,6.75-9.48,7.51-5.41,1.11-11.3-.35-17-.17-2.44.08-4.84,1.55-7.25,2.38,1,2.77,1.27,6.69,3.26,8,3.8,2.6,8.5,4.07,13,5.38,4.85,1.4,10.42,1.1,14.72,3.37,3.57,1.89,8.31,6.75,7.92,9.68-.51,3.9-4.87,8.87-8.73,10.33-4.68,1.77-10.58,0-15.91.41-3.14.21-6.21,1.51-9.31,2.31,1.41,3.33,2,7.7,4.42,9.76a47,47,0,0,0,14.1,7.55c5.92,2.13,12.52,2.52,18.25,5,3.53,1.53,6,5.55,8.93,8.45-3.16,3.19-5.81,7.85-9.62,9.19-4.08,1.43-9.26-.57-13.94-.49-3.45.07-6.87,1.09-10.3,1.69.94,3.79,1.19,8,3.05,11.25,1.41,2.48,4.92,3.73,7.44,5.61q16.66,12.45,33.3,24.94c1.82,1.37,3.5,2.92,6.26,5.24-.74-24.13-2.71-46.27-10.87-67.77-2.84-7.5-3.65-17.44-1.17-24.86,3.29-9.84-.13-15.65-5.93-21.85-1.49-1.6-3.19-3-4.71-4.42l5.48-4Z"/><path class="cls-22" d="M195.5,743.45c1-16.94,1.06-17.06-13-20.2a154.56,154.56,0,0,0-18.74-3.13c-18.54-1.79-37.11-3.27-57.17-5,27.73-4.8,53.55,0,80.24,4.21-.74-7-1.36-12.94-2.11-20.12-66.9-12.32-127,4.12-184.7,39.07C66.31,734.24,131,735.18,195.5,743.45Z"/><path class="cls-23" d="M678.5,1169c28.5,17.78,57,35.63,85.55,53.25,3.82,2.36,8.37,3.54,12.58,5.27.45-.94.91-1.87,1.36-2.81-32.93-24.21-66-48.19-98.66-72.78-8.33-6.27-16.75-8.81-27-8.93a329.19,329.19,0,0,1-40.74-3.31c-18.34-2.52-36.56-6-56.43-9.36,2.9,1.67,4.46,2.63,6.08,3.48a722.56,722.56,0,0,1,113.57,74.48c9.29,7.4,18.36,7.67,30.1,7.35-5.53-5-10.08-8.79-14.25-13s-7.91-8.7-11.83-13.07l1-.62,54.3,31.86,1.46-2.95-61.84-49.62A4.9,4.9,0,0,1,678.5,1169Z"/><path class="cls-24" d="M425.92,509.84q22.88-61.77,45.67-123.37c-5.75,41.16-18.59,80.39-36.95,118,54.54-53.83,68.71-136.9,48.12-203.91a1920.73,1920.73,0,0,0-59.59,208.35Z"/><path class="cls-25" d="M382.16,510.09c-39.33-33.44-76-74.72-80.51-89.93L368.76,490c-29.3-57-74.64-100.62-116.56-149.13C250.24,402.67,315.56,487.46,382.16,510.09Z"/><path class="cls-26" d="M929,1171.2c35.07-8.46,70.53-8.59,107.28-5.66-27.74-31.34-149.69-17.23-191.06,22.1a1691.5,1691.5,0,0,0,204.33-11.22C1009.58,1170.08,969.27,1171.76,929,1171.2Z"/><path class="cls-27" d="M815.38,504.18c4,3.88,3.43,9.11-2.15,12.91a9.46,9.46,0,0,0-3.59,6.65c-.28,18.68-.16,37.38-.16,56.16,9.51-1.57,10.62-2.75,11.3-11.08.28-3.42,0-7.22,1.33-10.19,8-17.31,11.64-35,7.07-54.15l5.94,2.4V451.07c2.46,3.57,4.39,5.09,4.47,6.7.41,7.92.14,15.86.53,23.77a19.18,19.18,0,0,0,1.7,5.92c-2.22,14.65-4.2,27.68-6.38,42.09L846.82,523c.24-4.74-1.1-10,.93-12.41,8-9.42,8.2-21,5.22-30.55-3.67-11.82-7-22.93-6.59-35.55.35-10.47-2-21-3.35-31.54-.79-6.24-.95-12.79-3-18.59-5-13.82-13.45-15.17-25.65-3.11,5.3,8.45,10.92,17.11,16.22,25.95,3,5,7.93,10.43,2.74,16.32s-10.41.86-15.49-1.22c-.53-.21-1.23,0-3.81,0,1.82,6.91,2.46,14,5.55,19.68,2.77,5.12,9.6,9.21,5.19,15.49-2.86,4.08-8.73,6-14.87,10C810.2,485,806.31,495.3,815.38,504.18Z"/><path class="cls-28" d="M196.17,752.68,118.09,770.5c-.18-.52-.35-1-.53-1.57l52.24-19.25c.08-1.1.16-2.21.25-3.31-13.81,0-29-3.72-41.16.71-35,12.71-65,34.5-94.31,61.48,5.33-.73,8.35-.89,11.25-1.58q69.78-16.4,139.53-33C200,770.48,200.39,769.38,196.17,752.68Z"/><path class="cls-29" d="M498.47,1112.11c-11.81-4.09-22.32-14.34-36.65-8.23-5,2.13-9.39-.21-8.57-6.18s-2.06-9.07-6.58-9.33c-3.24-.2-7.09,2.46-9.92,4.76-3.88,3.14-6.45,8.62-10.7,10.36-3.94,1.61-9.94.72-13.84-1.33-1.64-.87-.65-7.65,0-11.6.48-2.86,2.38-5.49,4.66-10.39-23.63,1.33-29.42,19.89-40.19,33l8.36,7.78,13.34-12.39c-.78,3.32-1.26,5.36-1.88,8,6.93-.81,13.47-1.64,20-2.31s13.29-1.18,19.93-1.76c0,.41.06.83.1,1.24l-9.62,3.32,9,5.35c-37.42-7.92-52.43-.89-66,28.47,3-.8,5.36-1.28,7.62-2.07,13.65-4.79,27.57-9,40.78-14.75,8.62-3.77,13.4-.22,19.15,5a132.41,132.41,0,0,0,18.94,14c1.63,1,6.08,0,7.35-1.61,1.09-1.36.17-5.32-1.11-7.35-2.85-4.53-7.51-8.16-9.46-13-1.64-4-.48-9.18-.56-13.83,4.4.33,9.57-.69,13,1.27,7.11,4,13.07,10,20,14.46,4.06,2.61,8.88,7.88,13.8.78C503.88,1127.43,503.77,1114,498.47,1112.11Z"/><path class="cls-30" d="M708.71,247.66c-21.62-8.39-44.1-8.64-66.76-1.19-1.74.58-3.82,3.49-3.86,5.35-.3,16.39-.17,32.8-.17,48.72h70.79Z"/><path class="cls-31" d="M164.21,1049.92c-3,2.3-5.29,5.59-7.89,8.45,4.21,1.38,8.61,4.31,12.57,3.81,6.79-.86,13.27-4,20-5.93,5.7-1.63,11.44-2.56,14.72,4.34s.44,11.7-5.38,15.19c-6.17,3.69-12.57,7-18.84,10.47,6.19,11.76,25.52,12.22,42.31,2.38.53-5.56-.36-11.2,1.83-15.13s7.44-6.14,12.38-9.89l-36.8-23.45,2.74-3.67,6.89,3.31c3.89-14.75-5.37-34.65-17-37.06-5.86,16.58-5.49,15.9-21.73,7-6.77-3.72-15.54-5.41-23.35-5.26-9.59.2-18.2,13.4-15.16,22.6,3.59,10.85,12.14,4,18.57,3.38,7.19-.74,14.25-3.09,21.44-3.43,3-.14,8,2.49,8.84,5,.9,2.68-1.1,7.56-3.44,9.83C173.38,1045.21,168.2,1046.87,164.21,1049.92Z"/><path class="cls-32" d="M982.06,350.71c1,5.41.19,11.13.19,17.59l13.84,4L1021,318.88c-1-.8,1.27.35,1.13.95-4.31,19.31-12.3,37.21-21.86,54.6,13.67-12.34,36.17-14.44,42.88-37.34-3.53,1.4-5,2.43-6.42,2.45-3.49,0-8.58.88-10.08-1-1.78-2.2-1.82-7.74-.2-10.32,2.72-4.32,7.43-7.37,11.16-11.09,4.43-4.45,8.71-9,13.06-13.58-16-2.67-16.25-3.8-10.81-16.71a66.39,66.39,0,0,0,5.18-21.86c.19-3.82-3-9.66-6.35-11.31s-10.33-1.07-13,1.43c-2.51,2.36-2.53,8.66-1.8,12.91,1.27,7.43,4.7,14.51,5.69,21.94.42,3.17-2.25,8.18-5,9.85-1.92,1.16-7.23-1.1-9.58-3.35-3.73-3.56-6.24-8.39-9.27-12.69l-3.26.07c-.46,4.78-2,9.77-1.12,14.29,1.12,5.79,4.2,11.2,6.42,16.78,2.51,6.32.68,11.3-5.13,14.49-5.6,3.06-9.67.23-12.88-4.35-2.51-3.57-4.94-7.2-9.33-13.63-1.94,7.62-4.61,12.67-4.09,17.36C977.2,336.21,980.74,343.29,982.06,350.71Z"/><path class="cls-33" d="M1154,532.49c-1.68,4.51-5.55,8.2-8.48,12.24-3.26-2.72-6.74-5.23-9.68-8.27-1.53-1.58-2.09-4.11-3.24-6.52-8.73,8.66-8.77,11.32-.92,52.17,3.69-9.56,6.5-16.87,8.81-22.88,1.76-.16,3.88.29,4.64-.53,4.3-4.65,8.06-9.81,12.49-14.32,1.38-1.39,4.3-1.25,5.25-1.5l-25.46,34.79h9c-15.94,9.56-19.08,15.7-13.74,25.38,9.74-10.93,21.34-17.34,36.59-17,8.52.2,18.27.47,19.67-12.43-3.19-.63-6.26-1.31-9.35-1.84-7.16-1.23-13.46-4-12.6-12.46S1175,552.24,1181,552a180.59,180.59,0,0,0,18.77-1.56c1.43-.22,2.45-3.08,3.66-4.73-1.44-1-2.76-2.49-4.35-2.86-4.31-1-9.16-.62-13-2.46s-6.8-5.76-10.14-8.76c3.45-2.7,6.54-6.84,10.41-7.79,7-1.72,14.45-1.4,21.68-2.17,6.11-.65,7.34-3.88,4.61-9.24-7-13.83-24.26-14-34.25-.34-9.29,12.74-9.28,12.73-18.48.46-.28-.38-1.13-.33-3.19-.86-1.25,3.1-3.32,6.29-3.69,9.67C1152.62,525,1155.13,529.34,1154,532.49Z"/><path class="cls-34" d="M165,688.79l.42-3L116.46,669.6c.29-.91.59-1.83.88-2.75l68.34,22.37c.95-5.64,1.84-10.91,2.83-16.75C138,649.92,46.31,650.23,10.12,663.79c33,6.79,67.44,14.61,102.19,20.73C129.57,687.56,147.39,687.46,165,688.79Z"/><path class="cls-35" d="M201.31,614.89c-6.62-8.06-12.55-16.69-18.63-25.17-2.22-3.09-4-6.49-6-9.74l2.58-1.83,27.51,32.76c6.16-8.11,5.9-15.52,1.18-24-11.76-21.09-29.53-36.21-48.89-49.39-14.4-9.8-30.16-17.6-45.32-26.29l-2.6,3.3,89,120.69C206.6,627.7,206.9,621.67,201.31,614.89Z"/><path class="cls-36" d="M145.79,649.81c10,5.54,22.16,7,33.34,10.35.29-.72.57-1.44.86-2.17l-36.51-28.06,1.5-2,46.86,34.72c2.65-5.56,5-10.6,7.72-16.26-47.93-33.34-100-53.63-159.84-59.93a46,46,0,0,0,3.9,3.39C77.6,610,111.3,630.6,145.79,649.81Z"/><path class="cls-37" d="M521.52,428.92c-24.78,45.87-16.22,146.53,16.39,183.76-1.38-35.17-16.93-66.94-13.66-102.86,4,17.18,7.49,32.57,11,48a497.93,497.93,0,0,0,1.55-65c-.36-7.82.13-17.29-9-22.48-1.5-.85-2.56-4.91-1.88-6.78C530.43,451.27,524.25,440.71,521.52,428.92Z"/><path class="cls-38" d="M1090.42,1142l109.06-134.49-3.21-3.84c-13.53,5.88-27,11.95-40.61,17.61-33.57,14-41.93,45.2-52.65,75L1144.4,1050l.57.77-58.71,88.2Z"/><path class="cls-39" d="M794.86,464C774.9,459.52,755,455,735,450.78c-1.93-.41-4.47.42-6.31,1.43-14.39,8-28.67,16.13-44.85,25.28l15.73,10.63c8.1,5.46,16.05,14.93,24.36,15.26s17-8.53,25.64-13.15c15-8,30.11-15.85,45.17-23.76C794.74,465.63,794.8,464.79,794.86,464Z"/><path class="cls-40" d="M1054.5,957.55c-23.18,23.89-26,28.3-29.36,42.36-8.78,36.9-3.26,71.62,15.71,104.31a58.82,58.82,0,0,0,4.37,5.57c-7.64-51.27-8.18-86.52-.38-100.49v38.3C1064.37,1018.53,1055.11,988.58,1054.5,957.55Z"/><path class="cls-41" d="M981.78,1117c-17.84-31-78-41-116.14-12.34,45,12.85,89.31,25.31,135.12,31.93-11.35-10.73-26.18-13.33-39.92-18.12-13.55-4.74-27.54-8.24-41.33-12.28l.57-2.31Z"/><path class="cls-42" d="M860.38,541.5c-.24-3.45-2.9-8.08-5.82-9.6-2.53-1.33-8.8-.14-10.07,2-1.64,2.7-.6,7.62.48,11.24,1.87,6.3,5.08,12.22,6.79,18.55.54,2-1.32,5.91-3.2,7s-5.76.56-7.72-.78c-3.56-2.45-6.35-6-9.46-9.14l-3,.47c.75,4.27.94,8.74,2.39,12.75,1.38,3.79,5.32,6.92,5.87,10.67.58,4-.27,9.63-2.85,12.14-1.73,1.68-7.87-.08-11.42-1.67-2.82-1.27-4.71-4.61-7.79-7.85-5.12,10.95.4,18.78,4.44,26.63,6.71,13,4.92,16.69-8.72,17.51v41.86c10.34-16.12,22.32-31.16,21.46-51.35.57,1.66,1.14,3.31,1.7,5l2.15.33c3.56-13.82,7.12-27.64,10.86-42.12.51,2.45,2,5.28,1.44,7.59-2.64,10.5-2.65,21.68-8.13,31.47-.92,1.64-.91,3.8-1.63,7.1,11.41-9.39,24-15.46,28.2-28.18-5.11-.82-11.47,0-13.33-2.51-4.14-5.6-.6-11.33,4.19-15.72,1.63-1.5,3.69-2.65,5-4.4,2.21-3,4-6.4,6.41-10.42-12.9-.48-13.25-1.29-10.41-11.73C859.61,552.82,860.77,547,860.38,541.5Z"/><path class="cls-43" d="M1153.32,830.5c-2.53-5.06-5.31-11.13-9.77-13.82-6.29-3.79-14.21-4.89-21.68-7.23-.65,22.38,21,26.45,32.86,40.07-5.56,3.17-12,5.89-17.22,10.12-3.69,3-6.13,7.84-8.22,12.28-.64,1.34,1.32,5.31,2.9,5.9s4.77-1,6.23-2.55c3.22-3.46,5.11-8.46,8.79-11.09,4.13-2.95,9.64-4,14.55-5.85.55,5,2.54,10.36,1.34,14.88-2.1,7.87-6.34,15.14-9.33,22.8-2.33,6,0,8.85,6.49,9.13,18.35.78,28.13-15,20.73-33.83-6.41-16.25-6.41-16.25,10.07-20.47,0-6.77-2.24-11.59-10-11.7-10-.15-15.14-6.16-16.91-15-1.22-6.1-.77-12.54-1-18.83-.11-3.48,0-7,0-10.43-5.95,14.29-14.62,28.32-1.62,42.61l-6.84,3.76C1154.25,837.31,1154.78,833.4,1153.32,830.5Z"/><path class="cls-44" d="M195.08,803.26l-28.61,16c5.91-6.2,12.33-11.86,19.82-14.72,12.24-4.68,13.63-13.12,11.36-24-31.74,9.36-83.15,70.7-86.54,104.32,3.21-2.9,5.66-5.29,8.29-7.45,21.77-17.9,43.26-36.15,65.54-53.39C192,818.53,197.41,813.72,195.08,803.26Z"/><path class="cls-45" d="M911.24,604.13c-14.87,1-25.92,9.48-29.53,22.71-3.25,11.91,1.39,22.47,14.19,31.29,4.62,3.18,9.71,5.7,16,9.31-4.12-25.62,2.32-34.45,26.62-37.17,12.09-1.35,24.34-1.27,36.23-1.83C961.79,615.76,928.67,603,911.24,604.13Zm13.85,8.25c.3,1.27.61,2.53.91,3.8-3.08.5-6.19.88-9.23,1.54s-6.31,1.64-11.45,3C911.94,613.9,916.9,608.69,925.09,612.38Z"/><path class="cls-46" d="M994,1211.66l-.7-.66,32.45-22.88c-10.32.82-18.23,1.17-26.07,2.18-4.53.59-10.12.91-13.18,3.65-16,14.27-24.87,32.89-31.59,55.31,38.51-18,73.3-38,106.14-61.33-.63-1.36-1.27-2.72-1.91-4.08Z"/><path class="cls-47" d="M1180.13,1080c-26-2.88-41.7,11-53.67,32l34.88-17.41c0,.28.09.56.13.84L1090.3,1153l1.88,4.92c3.61-.82,7.87-.68,10.74-2.61,19.22-12.87,38.46-25.76,57.07-39.49,14.09-10.39,27.24-22,40.81-33.14l-1-2.61C1193.21,1080.08,1186.6,1080.69,1180.13,1080Z"/><path class="cls-48" d="M344.76,505.14c-27.52-7.11-52.16-16.62-74.51-31.34l66.4,24.11c.44-.91.89-1.82,1.33-2.74C299.7,473.75,258.91,458,216.74,441,240.53,481,301.12,511.29,344.76,505.14Z"/><path class="cls-49" d="M750.06,714.91c0,1.7.76,4,2,5,7.79,6.18,15.81,12.06,25,19V644.56L750,657.7C750,676.36,749.93,695.64,750.06,714.91Z"/><path class="cls-50" d="M599.12,663.19c-.06-2.29-2.46-5.59-4.61-6.55-7.36-3.28-15.09-5.72-23-8.58v88.1C581,728.6,588.73,722.7,596,716.27c1.84-1.62,3-4.91,3.09-7.46C599.42,693.61,599.5,678.39,599.12,663.19Z"/><path class="cls-51" d="M830.42,716.14c5-.15,10.29-.34,15-1.88,3.4-1.11,6.06-4.47,9.05-6.82a16.81,16.81,0,0,0-8-2.79c-5.8-1-13.36-.55-14-8.48s6.68-9.07,12.47-10.44c5.21-1.24,10.69-1.4,15.9-2.67,5.82-1.43,11.21-3.58,8.37-11.68-2.62-7.48-7.75-10.68-14.63-6.89a61,61,0,0,0-16.81,13.34c-9.12,10.66-9.91,11-17.09-.9-10.88,9.15-8.87,22.09-11.59,33.87l16.63-2.07c-3.09,2.28-6.48,3.32-9.32,5.19-2.6,1.71-6.41,4.18-6.58,6.55-.74,9.89-.32,19.87-.32,30.68,11.24-8.81,13.45-8.59,20.39,1.3.64-5.13,1.25-10,1.85-14.84-1.6-.44-2.79-.87-4-1.11-6-1.17-11.6-3-10.48-10.73C818.33,718.47,823.64,716.35,830.42,716.14Z"/><path class="cls-52" d="M153.48,922.9l2.59,1.57,46.84-66.94-9.35-4.85-8.7,12.65-2.58-1.68,33-51.46C169.55,836.08,160.24,878.81,153.48,922.9Z"/><path class="cls-53" d="M563.91,540.88c-1.47-16.33-.32-32.89-.33-49.35,0-16.31,0-16.31-17.74-21.24V574.43C559.85,567,565.32,556.49,563.91,540.88Z"/><path class="cls-54" d="M732.31,1528.28V1477c-24.69-1.41-47.06,1.91-70,11.84C689.42,1497.42,713.36,1508.26,732.31,1528.28Z"/><path class="cls-55" d="M684.26,1146.3c12.8,9.14,23.44,16.91,34.33,24.31,1.29.88,4.28.42,5.87-.49,24.82-14.06,49.54-28.29,70.92-40.56Z"/><path class="cls-56" d="M545.74,1136v96.18c13.23-6.77,19.77-15.82,18.16-31.08-1.52-14.42-.32-29.13-.4-43.72C563.42,1141.24,563.39,1141.24,545.74,1136Z"/><path class="cls-57" d="M669.81,365.1V307.16L643.07,309V365.1Z"/><path class="cls-58" d="M706.21,365.3V309.11L679,307.41V365.3Z"/><path class="cls-59" d="M785.53,643.45v11.61q0,38-.1,76.08c0,14.45.74,15.47,16.32,20.34,0-24.56-1-48.92.39-73.12C803,663.73,795.05,655.25,785.53,643.45Z"/><path class="cls-60" d="M545,750.68c18.56-7.7,18.57-7.7,18.57-24.85q0-33.74-.07-67.48c0-2.23-.38-4.47-.58-6.7-7.47,8.51-16.31,17.36-17.2,27C543.54,702.1,545,726,545,750.68Z"/><path class="cls-61" d="M214.17,552.47l13.26,25.17,10.5-8c-12.84-28.06-31.16-50.47-58-69.57,13,31.4,24.85,60.12,37.21,90C231.48,574.63,212.12,565.26,214.17,552.47Z"/><path class="cls-62" d="M717.2,311a9.94,9.94,0,0,0-2.28.29V367l27.42,2.84V340.27C742.35,314.66,742.35,314.66,717.2,311Z"/><path class="cls-63" d="M801,1234.71v-97.66c-15.57,5.26-15.54,5.26-15.52,19.67,0,17.39,1.13,34.88-.36,52.15C784,1222.14,791.19,1228.05,801,1234.71Z"/><path class="cls-64" d="M634.3,310.15c-8.3,1.7-15.93,3.11-23.46,5-1.43.34-3.48,2.38-3.5,3.67-.23,16.86-.15,33.73-.15,51.07l27.11-3.25Z"/><path class="cls-65" d="M801.72,568.77c0-31.47,0-61.59,0-91.7a26.63,26.63,0,0,0-.47-3.55c-15.69,4.34-15.72,4.34-15.75,18.6,0,17.45.84,35-.31,52.33C784.31,557.45,792.57,562.19,801.72,568.77Z"/><path class="cls-66" d="M596.61,495c-8-4.59-16.19-8.73-25-13.4v69c8.95-6.8,16.37-12.08,23.33-17.92A12.53,12.53,0,0,0,599.1,525a243.54,243.54,0,0,0,.21-24.62C599.26,498.51,598.1,495.85,596.61,495Z"/><path class="cls-67" d="M598.57,318c-8.63,3.89-16.19,6.95-23.34,10.75-1.94,1-3.74,4.28-3.8,6.56-.36,13.25-.17,26.52-.17,41.28L598.57,371Z"/><path class="cls-68" d="M599.34,1170.06c-.36-2.34-.75-5.66-2.32-6.69-8-5.22-16.37-9.85-25.49-15.2v64.31c4.5-3,7.35-5.67,10.71-7.09C598.42,1198.57,601.79,1185.73,599.34,1170.06Z"/><path class="cls-69" d="M777.58,1215.67v-67.22l-6.93,3.65c-21.15,11.26-21.2,11.27-20.62,35.16.06,2.7.18,6.43,1.85,7.89C759.79,1202.05,768.25,1208.33,777.58,1215.67Z"/><path class="cls-70" d="M777.54,335.19a6.08,6.08,0,0,0-2.69-4.49c-7.67-4-15.52-7.62-24.38-11.88v52.07a39.37,39.37,0,0,0,3.9,1.3c7.37,1.6,14.76,3.15,23.29,5C777.66,362.81,777.75,349,777.54,335.19Z"/><path class="cls-71" d="M777.37,548.09V484.26c-6.68,3.41-12.66,6.12-18.26,9.47-3.3,2-8.25,4.76-8.52,7.56-.79,8.3-2.5,18.64,1.45,24.75C757.64,534.7,768,540.3,777.37,548.09Z"/><path class="cls-72" d="M530.33,754.81c1.34,1.27,4,1.13,6.09,1.64l1.78-2.63-24.14-26.93,1-.94,20.78,17.5,2.27-1.13c-1.2-3.65-1.35-8.32-3.75-10.79-17.3-17.7-38.28-29.25-62.82-35C490.51,716.66,510.33,735.83,530.33,754.81Z"/><path class="cls-73" d="M233.85,1103c-5.91,2.65-11.23,6.6-17.11,9.32-6.26,2.89-7.62,7.77-2.06,11.76a22.11,22.11,0,0,0,10.48,3.52c16.5,1.47,33,2.5,52.43,3.9-12.55-10-23.88-19.37-35.6-28.19C240.16,1101.94,236.13,1102,233.85,1103Z"/><path class="cls-74" d="M741.71,710.89V659.26l-26.81-1.57C709.54,682.22,727.94,693.93,741.71,710.89Z"/><path class="cls-75" d="M939.32,721.81c3.82-1.85,8.61-1.64,12.91-2.61,4.64-1,8.21-4,5.14-8.58-1.63-2.43-7.24-4.63-9.63-3.61a33.35,33.35,0,0,0-12.27,9.87c-5,6.25-9.1,9.16-15.36-2.28-1.63,7.72-1.92,13.14-4,17.76a22.82,22.82,0,0,1-8.75,9.95c-1.2.7-5.64-4.19-9.53-7.26l-4.09,14.13,23.92,8.4c-.45-10.89,5.72-13.2,14.57-13.34,4.56-.07,9.1-2.2,13.65-3.4l-.63-3c-1.55-.14-3.35.17-4.59-.52-3.8-2.13-7.38-4.65-11-7C932.82,727.38,935.6,723.62,939.32,721.81Z"/><path class="cls-76" d="M427.86,731.29c14.1,6.66,26,18.16,43.1,15.5,15.06-2.34,26.94,6,39.6,11.76,2.31,1,4.37,2.77,6.75,3.46,2,.58,4.33.12,7.59.12C506.92,741,452.72,724,427.86,731.29Z"/><path class="cls-77" d="M599.13,1328.74c.37-8.3.17-16.63.17-26l-27.61,6.52v31.54c8.29-2.59,16.12-4.83,23.77-7.57C597.07,1332.7,599.06,1330.35,599.13,1328.74Z"/><path class="cls-78" d="M865.21,741.37c4.54-1.24,9.4-1.27,14-2.34s9.87-2.32,7.78-9.15c-2-6.43-6.21-10.22-12.75-6.57-5.38,3-9.9,7.57-14.69,11.56-2.81,2.34-5.18,6.42-8.18,6.88-2.12.32-5-4.12-8.65-7.51-3.67,11-7.13,21.45-10.69,32.19l10.56-6.38,1.29,1.64-7,5.18.94,2.7c2.24,0,5.6.94,6.53-.16,4-4.7,10.69-10.52,10-15C852.81,744.21,858.88,743.11,865.21,741.37Z"/><path class="cls-79" d="M1055.59,456.58c-18.12-.44-19.63,14.87-26,25.06l24.62,13.18c-4.28-12-.78-14,7.49-13.2a50.72,50.72,0,0,0,17.66-1.71c2.57-.68,5.28-4.35,6-7.16.53-2.05-1.63-6.59-3.37-7.05-2.84-.75-6.68.25-9.44,1.74-5,2.68-9.16,6.86-14.23,9.24-2.53,1.2-7.63,1-9.11-.73-1.63-1.89-1.27-6.49-.29-9.4C1050.09,463.25,1052.87,460.51,1055.59,456.58Z"/><path class="cls-80" d="M759.89,1305.37c-2.87-.8-6-.85-9.45-1.32v28.49l27.21,9.24c-.26-5.5-.91-9.89-.6-14.21C778.57,1306.05,780.57,1311.18,759.89,1305.37Z"/><path class="cls-81" d="M607.83,659.93v43.16c11.77-14.36,28-25.82,27-47.21Z"/><path class="cls-82" d="M714.79,1298.74v27.63l27.22,4.14v-28.72Z"/><path class="cls-83" d="M678.92,1297.84v26l27.1,1.53v-27.48Z"/><path class="cls-84" d="M643.22,1297.46v27.66l26.83-1.56v-26.1Z"/><path class="cls-85" d="M634.27,1298.49l-26.75,2.87v28.89l26.75-4.44Z"/><path class="cls-86" d="M787.87,633.4c3.66,5.34,8,10.18,13.89,17.34,0-20.85-.76-39.08.28-57.2.63-11-3.08-18.14-14.1-24.37,10.16,20.41,8.27,38.92-.21,57.34C786.85,628.44,786.76,631.79,787.87,633.4Z"/><path class="cls-87" d="M563.38,1340.6c.51-9.09.2-18.23.2-27.36l-3-2.42c-5.19,4-13.85,7.18-14.87,12-2.26,10.75-.71,22.3-.71,34.87,5.58-3.83,10.14-6.5,14.09-9.88C561.13,1346.07,563.23,1343.12,563.38,1340.6Z"/><path class="cls-88" d="M568.7,1228.25c9.78-3,21-4,29-9.53,12.59-8.71,23-20.53,35.58-32.13-2.94-1.16-5.29-2.85-6.12-2.29-20.12,13.43-40.08,27.1-60.07,40.73C567.63,1226.1,568.17,1227.17,568.7,1228.25Z"/><path class="cls-89" d="M563.58,363.8c0-8.43,0-16.87,0-26.95-18.33,12.35-20.46,28.56-17.75,46.72C563.56,380.21,563.56,380.21,563.58,363.8Z"/><path class="cls-90" d="M551,582.18c-6.47,7.05-8.45,52.69-4.73,76.78,5.25-6.81,10.18-12.75,14.48-19.12,1-1.5.54-4.86-.46-6.7C551.94,617.83,546.55,602,551,582.18Z"/><path class="cls-91" d="M787.06,339.9c-.5.63-1.2,1.1-1.21,1.58-.17,8.55-.32,17.1-.35,25.65,0,14.33.68,15,15.83,16.13C803,366.73,802.48,350.9,787.06,339.9Z"/><path class="cls-92" d="M982.94,639.31c-26-6.78-46.35,8-40.16,31,3.59-10.6,9.52-17.25,20-16.86S978.72,647.82,982.94,639.31Z"/><path class="cls-93" d="M801.79,1358.26c0-11.4.31-20.59-.08-29.73-.48-10.86-2.72-12.69-15.84-13,0,9.85-1.53,20.05.64,29.39C787.61,1349.73,795.36,1353,801.79,1358.26Z"/><path class="cls-94" d="M856.46,643.91c-7.25-1.69-16.79,4.94-21.48-6.08l-14.67,29.83C830,670,851.43,655.87,856.46,643.91Z"/><path class="cls-95" d="M707.78,447.37H679.07v26.41C688.11,462.77,703.24,463.2,707.78,447.37Z"/><path class="cls-96" d="M632.53,1215.48c11,2,21.65,2.42,30.28-7.07-3.8-1.32-7.69-2.11-11.09-1.14-6,1.71-11.75,4.48-17.61,6.81l17.34-16c-5.15-1.13-9.69-3.7-12-2.38-12.77,7.25-25,15.45-37.39,23.33l1.05,2.22Z"/><path class="cls-97" d="M642.93,447.63l-1.41,3.88,28.3,17.16v-22.6Z"/><path class="cls-98" d="M981.87,1034.75a92,92,0,0,0,20.56,36.56c-4.5-15.63-8.69-30.14-13.6-47.19C985.69,1028.71,981.2,1032.51,981.87,1034.75Z"/><path class="cls-99" d="M1010.19,1069.83l-8.64-53.22-3.33-.68c-1.17,3.49-4,7.41-3.24,10.39,3.85,14.8,8.65,29.35,13.11,44Z"/><path class="cls-100" d="M962.17,393.38c-.88-10.76.52-20.46,11.38-24.67l-13.68-18.18c4.72,10.6,2.79,19.21-3.5,28C951.51,385.26,953.79,390.37,962.17,393.38Z"/><path class="cls-101" d="M651.62,528.54c-7.91-7.06-14.7-5.06-27.82,7.7C636.09,544.92,643.62,536.3,651.62,528.54Z"/><path class="cls-102" d="M669.35,540.23c-10-11.87-17.86-1-28.5.88l14.44,9.52Z"/><path class="cls-103" d="M1020.65,482.72h-20.31c-.31.62-.61,1.24-.92,1.87l24.06,14.79C1022.29,492.39,1021.5,487.75,1020.65,482.72Z"/><path class="cls-104" d="M607.79,522.24l15.91-11.88-15.91-9.55Z"/><path class="cls-105" d="M981.91,497l1.73-1.52c-1.23-5.65-2.46-11.3-4-18.49l-13,8.9Z"/><path class="cls-106" d="M512.59,765.59l-27.34-15.48C503.2,770.5,503.2,770.5,512.59,765.59Z"/><path class="cls-107" d="M727.79,1177.57l14,10.39v-19.1Z"/><path class="cls-108" d="M633.26,517.1l-2.2-2.85-25.68,19.87C619.15,534.54,624.23,523.13,633.26,517.1Z"/><path class="cls-109" d="M670.08,549.51l-9.2,7.09c3.14,5.42,5.77,10,9.2,15.88Z"/><path class="cls-110" d="M607.38,1187.64l13.88-8.86-13.88-8.94Z"/><path class="cls-111" d="M231.15,1025.4c4.38.62,9-.09,13.46-.29l.18-3.84-17.79-4.5C229.07,1021.29,229.85,1025.22,231.15,1025.4Z"/><path class="cls-112" d="M730.27,510.08l11.19,8.3V503.71Z"/><path class="cls-113" d="M843.89,560.79l-9.5-20.68C827.36,552.18,838.89,555,843.89,560.79Z"/><path class="cls-114" d="M1010.41,388.68c-8,1.05-9.73,5.4-7.93,16.12l2.51.77Z"/><path class="cls-115" d="M687.66,552.54l-8.82-6.68V563Z"/><path class="cls-116" d="M811.22,848.13c0-5.4-1.23-8.32-6.69-10.56a206.62,206.62,0,0,1-69.3-45.93c-10.8-10.92-20.66-22.77-30.63-33.87-6.86,7.77-13.3,16.05-20.77,23.27-9.1,8.79-14.72,8.74-23.66-.16-7.34-7.31-13.66-15.63-21-24.15-26.32,37.14-59.49,64.37-100.7,81.42-5.76,2.38-5.08,6.35-5.08,10.69,0,63.15.16,126.3-.18,189.44,0,6.93,2.65,9.3,8.44,11.15,86.64,27.68,173.22,28.18,259.94.25,7.12-2.29,9.81-5.12,9.76-13.06C811,973.79,811.07,911,811.22,848.13ZM627.55,831.05h124c.92,11.36,2,22.6,2.57,33.87.07,1.35-2.22,3.9-3.52,4s-4.11-1.89-4.33-3.27c-3.76-23.45-19.69-27.46-39.8-25.78a206.91,206.91,0,0,1-25.64.06c-6.73-.28-11.39,1.12-10.23,10-6.16,0-11,.6-15.58-.21-3.06-.54-5.68-3.24-8.63-4.72-4.59-2.3-9.38-4.22-13.92-6.63-2.35-1.25-4.34-3.2-6.49-4.83Zm58.5,210.82c-17.42.34-34.85.28-52.28,0-2.57,0-5.11-2-7.66-3,2.12-1.57,4-4,6.41-4.56,13.76-3.2,15.45-4.51,15.86-19.11.54-19.31.32-38.63.49-58,0-1.83.41-3.66.84-7.15,3.56,2.67,6.88,4.12,8.65,6.66,7.6,10.9,14.8,21.89,12.61,36.49-1.06,7.13-.28,14.55-.14,21.84.25,13.23,3.31,16.39,16.26,18.81,3.34.63,6.33,3.12,9.48,4.75C693.06,1039.77,689.57,1041.8,686.05,1041.87Zm62-1.67c-19.1.44-34.7-6.48-45.31-22.86C690,997.65,677.12,978,664.91,958c-5.09-8.35-11.39-11.93-21.07-11.19-8.18.62-16.46.12-25.73.12,0,18.56,0,35.94,0,53.32,0,10.13,5.58,14.63,15.33,15.63,2.59.26,4.92,3.09,7.37,4.75-2.58,1-5.15,2.83-7.74,2.86q-26.64.38-53.3,0c-2.32,0-4.62-1.87-6.92-2.88,2.17-1.62,4.16-4.27,6.56-4.71,14.25-2.59,16.53-4.53,16.62-19.19q.35-58.55,0-117.1c-.05-11.93-3.1-14.67-14.71-17-2.72-.53-5-3.21-7.51-4.91,2.62-1,5.25-2.88,7.88-2.88,41.55,0,83.11-.14,124.65.73,17.43.37,32.81,7.22,39.55,24.7,6.41,16.66,6.17,33.58-4.63,49-8.43,12-21.23,15.39-34.76,16.89-6.6.73-13.29.74-21.28,1.14,1.73,3.4,2.92,6.47,4.73,9.13,12.65,18.61,24.89,37.55,38.43,55.5,5.94,7.87,14.68,13.62,22,20.44,1.4,1.3,2.32,3.14,3.47,4.73C752,1038.2,750.05,1040.16,748.08,1040.2ZM759.41,970c-4.09-2.77-7.94-4.07-8.09-5.69-1.27-14.3-11.17-16.93-20.29-17,6.62-8.48,13.71-17.7,21-26.73,1-1.17,3.81-2.39,4.47-1.88a7.46,7.46,0,0,1,2.78,5C759.5,937.94,759.41,952.18,759.41,970Z"/><path class="cls-117" d="M495.58,853.18q-.12,86.19-.05,172.4c0,2.11,1.33,5.35,3,6.14,8.45,4.08,17.2,7.53,26.66,11.55V843.77L496.46,851A7.78,7.78,0,0,0,495.58,853.18Z"/><path class="cls-118" d="M849.07,861.61V851.39l-29.74-7.69v199.43c7.55-3.16,14-6.38,20.82-8.6,7.24-2.36,9.15-6.59,9.1-14.11C848.89,967.49,849.07,914.55,849.07,861.61Z"/><path class="cls-119" d="M457.65,856.83q-.13,74.19-.11,148.38c0,1.95.78,4.84,2.17,5.68,8.76,5.31,17.79,10.17,27.38,15.53V852.82l-28.43,1.48C458.09,855.7,457.65,856.26,457.65,856.83Z"/><path class="cls-120" d="M886.71,864.36c0-3.35-.31-6.71-.48-10.05l-28.89-1.51v173.44C865.28,1022,872,1018,879,1014.7c6-2.77,7.88-6.72,7.84-13.34C886.57,955.7,886.74,910,886.71,864.36Z"/><path class="cls-121" d="M419.47,856c0,40.62-.11,81.25.16,121.87a12.6,12.6,0,0,0,4.24,8.6c7.63,6.12,15.84,11.51,25.33,18.24V854.37l-29-2.26A22.46,22.46,0,0,0,419.47,856Z"/><path class="cls-122" d="M923.84,852.07l-28.64,2.35v150.19c8.69-6.14,16.74-11.17,23.9-17.25a16.32,16.32,0,0,0,5.27-10.88c.35-38.69.19-77.39.13-116.09C924.49,857.65,924.07,854.92,923.84,852.07Z"/><path class="cls-123" d="M962.42,908.94v-65.6l-29.71,7.54V977.26c14.4-14.33,34.45-21.9,29.91-46.5C961.32,923.72,962.42,916.23,962.42,908.94Z"/><path class="cls-124" d="M382,845.79q-.16,49.94-.15,99.87a9,9,0,0,0,2.13,5.87c8.31,8.18,16.89,16.08,27.09,25.68V850.6l-28-6.84C382.54,844.73,382,845.26,382,845.79Z"/><path class="cls-125" d="M660.38,769c1.82,1.75,3.92,3.21,5.79,4.91,3.85,3.5,7.76,4.12,11.59.16,6.57-6.8,13.2-13.56,19.42-20.67,1.35-1.54,2.16-5,1.38-6.72-7.16-16-14.72-31.83-22-47.26.57,11.45,2.71,23.94-3.34,35.24l-3.94.07-3.25-32.23c-4.24,10.1-8,20.05-12.52,29.6C643.69,752.85,643.51,752.78,660.38,769Z"/><path class="cls-126" d="M970.71,862v80c9-10.52,16.67-19.22,24-28.2,2.32-2.84,5.15-6.37,5.3-9.7.59-13.78.25-27.61.25-42.1Z"/><path class="cls-127" d="M373.26,938.66V862H345.51C338.4,893.94,345.89,920,373.26,938.66Z"/><path class="cls-128" d="M1001.22,826l-2.13-1.63c-6.25,3.62-12.38,7.47-18.79,10.81-11.47,6-12.77,9.11-8.29,23.14C986,850.9,994.42,839.16,1001.22,826Z"/><path class="cls-129" d="M1008.55,891.92l1.78.8L1033.94,855l-25.39,6.5Z"/><path class="cls-130" d="M335.49,895.14V861.26l-24.8-6.1Z"/><path class="cls-131" d="M345,824.59c-.21,10.44,15.19,28.39,30.55,33.48-1.93-7.51-1.58-15.82-5.52-19.36C363,832.47,353.46,829.14,345,824.59Z"/><path class="cls-132" d="M725.47,900.16c-.24-20.9-13-35.68-33.46-36.64s-41.22-.36-61.83-.3c-7.86,0-12.45,3.66-12.42,12.1.07,20.56,0,41.12,0,62.58,25.92,0,50.64,1,75.26-.29C713.44,936.57,725.71,921.07,725.47,900.16ZM670.1,933.29H649.3V868.2h20.8Z"/></g></g></svg>